<svg width="160" height="18" viewBox="0 0 160 18" fill="none" xmlns="http://www.w3.org/2000/svg">
    <path d="M10.192 4.46C10.24 4.556 10.256 4.636 10.256 4.7C10.256 4.812 10.192 4.892 10.064 4.988C9.872 5.116 9.584 5.228 9.312 5.26C8.704 3.868 7.488 3.068 5.936 3.068C3.968 3.068 2.08 4.652 2.08 7.5C2.08 10.796 4.336 12.748 7.056 12.748C8 12.748 8.96 12.54 9.728 12.092C9.824 12.236 9.872 12.444 9.872 12.604C9.872 13.036 8.576 13.692 6.928 13.692C3.568 13.692 0.992 11.308 0.992 7.548C0.992 4.06 3.376 2.108 5.984 2.108C8.016 2.108 9.504 3.1 10.192 4.46ZM15.8521 4.764C18.0761 4.764 19.9641 6.412 19.9641 9.228C19.9641 12.044 18.0761 13.692 15.8521 13.692C13.6281 13.692 11.7401 12.044 11.7401 9.228C11.7401 6.412 13.6281 4.764 15.8521 4.764ZM15.9321 12.764C17.4681 12.764 18.9081 11.644 18.9081 9.324C18.9081 6.924 17.4041 5.692 15.7721 5.692C14.2201 5.692 12.7961 6.812 12.7961 9.132C12.7961 11.532 14.3001 12.764 15.9321 12.764ZM24.3519 9.676H24.1919C24.0159 9.676 23.9359 9.58 23.9359 9.372C23.9359 9.164 23.9679 8.94 24.0159 8.764H24.2399C25.8879 8.764 26.6239 8.124 26.6239 7.18C26.6239 6.252 25.7919 5.692 24.7999 5.692C23.8079 5.692 23.0079 6.14 22.6559 7.004C22.4319 6.988 22.1759 6.892 22.0319 6.812C21.7599 6.652 21.6959 6.412 21.8399 6.204C22.4159 5.356 23.5359 4.764 24.7999 4.764C26.5119 4.764 27.6799 5.74 27.6799 7.132C27.6799 8.108 27.0719 8.844 26.1279 9.18C27.2319 9.484 27.9199 10.22 27.9199 11.308C27.9199 12.668 26.8159 13.692 24.6399 13.692C23.1519 13.692 21.8719 13.02 21.8719 12.636C21.8719 12.476 21.9199 12.284 22.0159 12.14C22.7359 12.54 23.6319 12.78 24.5439 12.78C26.0959 12.78 26.8639 12.14 26.8639 11.276C26.8639 10.3 25.9999 9.676 24.3519 9.676ZM31.2739 4.956H36.0739C36.3459 4.956 36.4579 5.052 36.4579 5.276V12.588H36.9859C37.2579 12.588 37.3699 12.684 37.3699 12.908V15.388H36.6979C36.4099 15.388 36.3139 15.292 36.3139 15.068V13.5H30.4259V15.388H29.7539C29.4659 15.388 29.3699 15.292 29.3699 15.068V12.588H30.1059C30.8579 10.14 31.2259 7.484 31.2739 4.956ZM31.1939 12.588H35.4019V5.868H32.2659C32.1699 7.804 31.8339 10.332 31.1939 12.588ZM41.9836 12.78C43.0876 12.78 44.1756 12.236 44.8636 11.004V9.644C44.1916 9.34 43.1676 9.164 42.3516 9.164C40.8476 9.164 39.9676 9.868 39.9676 10.972C39.9676 12.14 40.8956 12.78 41.9836 12.78ZM46.5116 12.748H46.7996C46.8316 12.86 46.8636 12.988 46.8636 13.132C46.8636 13.356 46.5596 13.612 46.0956 13.612C45.4396 13.612 44.9436 13.084 44.8796 12.156C44.2716 13.084 43.2156 13.692 41.8396 13.692C40.0636 13.692 38.9116 12.588 38.9116 11.004C38.9116 9.26 40.2396 8.236 42.2556 8.236C43.1676 8.236 44.1116 8.444 44.8636 8.812V7.932C44.8636 6.396 43.8076 5.692 42.1916 5.692C41.2956 5.692 40.4636 5.868 39.7916 6.236C39.6956 6.124 39.6316 5.916 39.6316 5.756C39.6316 5.372 40.8316 4.764 42.4156 4.764C44.5276 4.764 45.9036 5.852 45.9036 7.996V11.852C45.9036 12.524 46.1276 12.748 46.5116 12.748ZM55.8673 13.5H55.1953C54.9073 13.5 54.8113 13.42 54.8113 13.196V9.548H50.0273V13.5H49.3553C49.0673 13.5 48.9713 13.42 48.9713 13.196V4.988C49.2113 4.924 49.4673 4.876 49.6913 4.876C49.9313 4.876 50.0273 4.972 50.0273 5.148V8.636H54.8113V4.956H55.4833C55.7552 4.956 55.8673 5.052 55.8673 5.276V13.5ZM62.3521 4.764C64.5761 4.764 66.4641 6.412 66.4641 9.228C66.4641 12.044 64.5761 13.692 62.3521 13.692C60.1281 13.692 58.2401 12.044 58.2401 9.228C58.2401 6.412 60.1281 4.764 62.3521 4.764ZM62.4321 12.764C63.9681 12.764 65.4081 11.644 65.4081 9.324C65.4081 6.924 63.9041 5.692 62.2721 5.692C60.7201 5.692 59.2961 6.812 59.2961 9.132C59.2961 11.532 60.8001 12.764 62.4321 12.764ZM76.7799 5.868H74.6359V8.668H76.7799C78.1879 8.668 78.7319 8.076 78.7319 7.276C78.7319 6.46 78.1879 5.868 76.7799 5.868ZM76.9879 13.5H75.5639C74.2839 13.5 73.5799 12.908 73.5799 11.164V4.956H76.8919C78.8279 4.956 79.7879 6.012 79.7879 7.228C79.7879 8.06 79.3399 8.732 78.5559 9.052C79.4999 9.356 80.1879 9.964 80.1879 11.084C80.1879 12.428 79.1319 13.5 76.9879 13.5ZM75.7399 12.588H76.9559C78.4119 12.588 79.1319 12.028 79.1319 11.068C79.1319 10.124 78.3639 9.58 76.7799 9.58H74.6359V11.004C74.6359 12.268 74.9239 12.588 75.7399 12.588Z" fill="white"/>
    <g clip-path="url(#clip0_222_748)">
        <path d="M89 1H93.9326V5.90488H89V1Z" fill="#00A89B"/>
        <path d="M98.1465 1H103.079V5.90488H98.1465V1Z" fill="#00A89B"/>
        <path d="M89 10.0947H93.9326V14.9996H89V10.0947Z" fill="#00A89B"/>
        <path d="M98.1465 10.0947H103.079V14.9996H98.1465V10.0947Z" fill="#00A89B"/>
    </g>
    <path d="M115.152 10.236V3.324C113.024 4.668 110.912 7.628 110.192 10.236H115.152ZM115.152 11.18H109.584C109.392 11.18 109.264 11.132 109.168 10.988C109.088 10.86 109.008 10.62 108.976 10.412C109.808 7.484 112.336 3.708 115.04 2.3C115.264 2.236 115.52 2.188 115.792 2.188C116.128 2.188 116.24 2.284 116.24 2.572V10.236H117.44C117.68 10.236 117.76 10.348 117.76 10.62V11.18H116.24V13.5H115.536C115.264 13.5 115.152 13.42 115.152 13.196V11.18ZM121.012 12.764V16.908H120.356C120.068 16.908 119.972 16.828 119.972 16.588V4.988C120.196 4.908 120.452 4.876 120.692 4.876C120.916 4.876 121.012 4.956 121.012 5.132V6.54C121.652 5.452 122.74 4.764 124.18 4.764C126.26 4.764 127.812 6.3 127.812 8.876C127.812 11.596 126.004 13.692 123.588 13.692C122.596 13.692 121.684 13.388 121.012 12.764ZM123.988 5.676C122.82 5.676 121.652 6.476 121.012 8.092V11.724C121.716 12.428 122.58 12.764 123.476 12.764C125.348 12.764 126.74 11.084 126.74 8.892C126.74 6.844 125.62 5.676 123.988 5.676ZM136.613 12.748H136.821C136.853 12.86 136.885 13.036 136.885 13.132C136.885 13.372 136.597 13.612 136.101 13.612C135.669 13.612 135.381 13.388 134.821 12.652L132.773 9.98C131.733 10.924 130.789 12.108 130.213 13.5H129.477C129.285 13.5 129.173 13.42 129.173 13.292C129.173 13.244 129.173 13.196 129.205 13.148C129.813 11.708 130.949 10.3 132.197 9.212L129.349 5.484C129.605 5.1 129.845 4.908 130.037 4.908C130.277 4.908 130.437 5.212 130.597 5.42L132.949 8.508C133.941 7.564 134.885 6.348 135.461 4.956H136.197C136.373 4.956 136.485 5.036 136.485 5.18C136.485 5.212 136.485 5.276 136.453 5.324C135.845 6.764 134.725 8.188 133.525 9.276L135.813 12.268C136.069 12.604 136.325 12.748 136.613 12.748ZM140.719 12.988C140.719 13.42 140.431 13.692 140.047 13.692C139.663 13.692 139.311 13.404 139.311 12.924C139.311 12.508 139.615 12.22 139.999 12.22C140.383 12.22 140.719 12.508 140.719 12.988ZM149.232 5.148C149.44 5.26 149.52 5.372 149.52 5.516C149.52 5.596 149.488 5.66 149.44 5.74C149.312 5.916 149.136 6.076 148.944 6.172C148.528 5.852 147.968 5.692 147.376 5.692C146.4 5.692 145.584 6.332 145.152 7.692V13.5H144.48C144.192 13.5 144.096 13.42 144.096 13.196V4.988C144.336 4.924 144.592 4.876 144.816 4.876C145.056 4.876 145.152 4.972 145.152 5.148V6.252C145.696 5.308 146.544 4.764 147.648 4.764C148.32 4.764 148.88 4.94 149.232 5.148ZM158.199 5.276V9.9C158.199 12.252 156.695 13.692 154.615 13.692C152.519 13.692 151.015 12.252 151.015 9.9V4.988C151.239 4.924 151.495 4.876 151.735 4.876C151.959 4.876 152.071 4.972 152.071 5.148V9.964C152.071 11.708 153.207 12.78 154.615 12.78C156.023 12.78 157.159 11.724 157.159 9.964V4.956H157.815C158.103 4.956 158.199 5.052 158.199 5.276Z" fill="white"/>
    <path d="M108 16.812H159.511V17.196H108V16.812Z" fill="white"/>
    <defs>
        <clipPath id="clip0_222_748">
            <rect width="14" height="14" fill="white" transform="translate(89 1)"/>
        </clipPath>
    </defs>
</svg>
