<svg width="32" height="32" viewBox="0 0 32 32" fill="none" xmlns="http://www.w3.org/2000/svg">
    <g clip-path="url(#clip0_432_9989)">
        <path d="M15.9766 0C7.14786 0 -0.0125807 7.13017 -0.046875 15.9385L-0.044474 15.9379L11.742 10.0876C11.675 10.043 11.6122 9.99229 11.5544 9.93618C11.5355 9.91779 11.5209 9.8954 11.5117 9.87065C11.5026 9.84591 11.4991 9.81942 11.5015 9.79315C11.5063 9.74002 11.535 9.6918 11.5794 9.66158C12.552 9.0062 13.45 8.24669 14.2575 7.39658C14.4022 7.24408 14.5511 7.09562 14.7041 6.95138C14.7047 6.95063 14.7062 6.95 14.7067 6.94924C14.8801 6.78571 15.0948 6.67237 15.3278 6.62139C16.083 6.45406 17.867 6.0416 19.0325 5.63557C19.5164 5.46592 20.0392 5.43986 20.5376 5.56053C20.6086 5.57752 20.6787 5.59767 20.7497 5.61681L24.6853 3.66354C24.6989 3.65675 24.714 3.65353 24.7292 3.65421C24.7443 3.65489 24.7591 3.65944 24.772 3.66741C24.7849 3.67539 24.7955 3.68654 24.8029 3.69979C24.8103 3.71304 24.8141 3.72795 24.8141 3.74311V5.00705C24.814 5.02422 24.809 5.04101 24.7996 5.05541C24.7902 5.06981 24.7769 5.08121 24.7613 5.08826L22.2826 6.20326C22.6361 6.38305 22.9753 6.58945 23.2973 6.82069L25.148 6.05495C25.1643 6.04823 25.1822 6.04649 25.1996 6.04994C25.2169 6.05339 25.2328 6.06188 25.2453 6.07434L26.1285 6.95629C26.1391 6.96681 26.1469 6.97986 26.151 6.9942C26.1552 7.00854 26.1556 7.02371 26.1522 7.03826C26.1491 7.05277 26.1425 7.06628 26.1328 7.07751C26.123 7.08874 26.1106 7.09733 26.0967 7.10247L24.3748 7.74004C25.5021 8.88841 26.1643 10.3124 26.3917 11.2822C27.3841 15.0806 26.2713 23.5487 21.2335 31.1167V31.1174C21.2335 31.1182 21.2335 31.1189 21.2327 31.1197C27.501 28.9473 32.0004 22.9994 32.0004 16.0008C32.0001 7.16391 24.8257 0 15.9766 0ZM21.8451 15.1472C20.7233 14.3937 19.6882 13.5187 18.7587 12.5383C18.6341 12.4068 18.4839 12.302 18.3173 12.2304C18.1507 12.1588 17.9713 12.1218 17.7899 12.1217H14.3454C13.9487 12.1217 13.5657 12.0325 13.2181 11.8711L-0.0263128 16.7755L-0.028329 16.7758C0.248421 22.5666 3.60749 27.5498 8.44575 30.1272C8.44651 30.1267 8.44714 30.1259 8.44714 30.1252C15.3065 28.4427 20.6768 22.9828 22.2182 16.0789C22.2571 15.9041 22.2423 15.7217 22.1758 15.5555C22.1092 15.3893 21.994 15.247 21.8451 15.1472ZM15.5503 10.3546H16.9338C17.0134 10.3545 17.0907 10.3281 17.1537 10.2795C17.2166 10.2309 17.2616 10.1628 17.2816 10.0859C17.3588 9.79093 17.3588 9.48112 17.2816 9.18617C17.2616 9.10906 17.2165 9.04078 17.1535 8.99206C17.0904 8.94335 17.0128 8.91698 16.9331 8.91711H16.2509L16.2486 8.91812H15.149C15.0264 8.91803 14.9081 8.96326 14.817 9.0451C14.7258 9.12693 14.6682 9.23957 14.6553 9.3613C14.6545 9.3613 14.6545 9.36168 14.6545 9.36193C14.6362 9.5314 14.6978 9.75815 14.8278 9.9922C14.8444 10.0144 14.8619 10.0366 14.8806 10.0575C14.9652 10.1511 15.0685 10.2259 15.1839 10.277C15.2993 10.3282 15.4241 10.3546 15.5503 10.3546Z" fill="#ED1B34"/>
        <path d="M20.2352 8.9181C20.8689 8.9181 21.4975 8.80529 22.0921 8.58547L26.096 7.1027C26.11 7.09752 26.1224 7.08893 26.1322 7.07771C26.1421 7.0665 26.1489 7.05302 26.1522 7.03849C26.1554 7.0239 26.1548 7.00875 26.1506 6.99443C26.1464 6.98011 26.1386 6.96708 26.128 6.95653L25.2448 6.07457C25.2324 6.06211 25.2166 6.05362 25.1993 6.05016C25.1821 6.04671 25.1642 6.04846 25.148 6.05519L18.2352 8.9181H20.2352Z" fill="black"/>
        <path d="M26.383 11.2464C26.4587 11.5593 26.4797 11.8524 26.4198 12.2104C26.1345 13.5835 24.5607 14.2438 23.3811 13.4917C22.6507 13.0263 21.9597 12.5021 21.3148 11.9243C20.8542 11.5125 20.2647 11.2732 19.647 11.2472L16.6774 11.1214C15.3621 11.0665 14.5966 9.91199 14.6549 9.3623V9.36167C14.6681 9.23989 14.7259 9.12728 14.8172 9.04547C14.9084 8.96366 15.0268 8.91843 15.1494 8.91849H16.2482L24.7614 5.08876C24.777 5.08168 24.7903 5.07025 24.7995 5.05584C24.8088 5.04144 24.8137 5.02467 24.8136 5.00755V3.74361C24.8136 3.72849 24.8098 3.71361 24.8025 3.70037C24.7952 3.68712 24.7847 3.67592 24.7719 3.66781C24.7589 3.65992 24.7441 3.65543 24.7289 3.65477C24.7137 3.65411 24.6986 3.6573 24.685 3.66403L-0.0441798 15.9382C-0.0441798 16.1015 -0.0463283 16.1508 -0.0400242 16.3904C-0.03662 16.5253 -0.0295583 16.709 -0.0262802 16.7757L13.2182 11.8713C13.5711 12.036 13.9558 12.1216 14.3453 12.122H17.7892C18.1556 12.122 18.5061 12.2731 18.7585 12.5386C19.6877 13.5191 20.7226 14.3941 21.8444 15.1474C21.9933 15.2471 22.1085 15.3894 22.1751 15.5556C22.2416 15.7219 22.2563 15.9043 22.2172 16.079C20.6759 22.9829 15.3063 28.4428 8.44692 30.1253C10.6913 31.3214 13.2548 31.9999 15.9762 31.9999C17.8176 31.9999 19.5861 31.6885 21.233 31.1178V31.117C26.2865 23.5257 27.391 15.0278 26.383 11.2464Z" fill="black"/>
        <path d="M20.7495 5.61699L11.742 10.088C11.675 10.0431 11.6122 9.99229 11.5544 9.93623C11.5354 9.91784 11.5209 9.89544 11.5117 9.8707C11.5026 9.84595 11.4991 9.81948 11.5015 9.79321C11.5063 9.74008 11.5349 9.69186 11.5794 9.66164C12.5521 9.00642 13.4501 8.2469 14.2574 7.39664C14.4025 7.24432 14.5516 7.09587 14.7046 6.95144L14.7069 6.9493C14.8805 6.78608 15.0951 6.67279 15.328 6.62145C16.0832 6.45412 17.8671 6.04166 19.0334 5.63563C19.5171 5.46598 20.0397 5.43991 20.5379 5.56059C20.609 5.57771 20.6794 5.59785 20.7495 5.61699ZM26.3821 11.243C26.3322 11.0388 26.259 10.8262 26.1693 10.5821L26.1706 10.5819C25.7802 9.51819 25.1674 8.54977 24.3728 7.74111L22.0924 8.58567C21.498 8.80555 20.8692 8.91818 20.2353 8.91831H18.2353L23.2962 6.82214C22.9741 6.59055 22.6346 6.38401 22.2808 6.20433L16.2483 8.91831H16.9334C17.0977 8.91831 17.2403 9.02835 17.282 9.18711C17.3188 9.33089 17.339 9.48147 17.339 9.63709C17.339 9.79233 17.3188 9.94304 17.282 10.0868C17.2618 10.1638 17.2166 10.2319 17.1535 10.2805C17.0905 10.3291 17.0131 10.3555 16.9334 10.3556H15.5508C15.4102 10.3558 15.2715 10.3231 15.1459 10.2601C15.0203 10.197 14.9112 10.1055 14.8274 9.99277C15.1967 10.6414 15.8816 11.088 16.6774 11.1212L19.647 11.247C20.2647 11.2731 20.8541 11.5124 21.3147 11.9241C21.9596 12.5019 22.6507 13.0261 23.3811 13.4915C24.5605 14.2436 26.1345 13.5833 26.4197 12.2102C26.4795 11.851 26.4586 11.5572 26.3821 11.243Z" fill="white"/>
    </g>
    <defs>
        <clipPath id="clip0_432_9989">
            <rect width="32" height="32" fill="white"/>
        </clipPath>
    </defs>
</svg>
