<svg width="112" height="30" viewBox="0 0 112 30" fill="none" xmlns="http://www.w3.org/2000/svg">
    <rect width="112" height="30" rx="6" fill="white"/>
    <rect x="0.5" y="0.5" width="111" height="29" rx="5.5" stroke="black" stroke-opacity="0.1"/>
    <path d="M84.7853 10.5248C84.4243 10.8565 83.8838 11.0001 83.1722 11.0001C82.4627 11.0001 81.9075 10.8565 81.557 10.5248C81.1959 10.2053 81.0312 9.71388 81.0312 9.08089V9H82.1862V9.08089C82.1862 9.42064 82.2664 9.63905 82.4015 9.75838L82.4058 9.76242C82.543 9.89387 82.7964 9.95858 83.1701 9.95858C83.5438 9.95858 83.7845 9.89387 83.9218 9.76242L83.926 9.75838C84.0653 9.63905 84.1561 9.41862 84.1561 9.08089V9H85.311V9.08089C85.311 9.7159 85.1316 10.2073 84.7853 10.5248Z" fill="#0656FE"/>
    <path fill-rule="evenodd" clip-rule="evenodd" d="M77.2391 16.9133C77.351 16.7696 77.427 16.5897 77.4798 16.351L77.4966 16.2843H78.8395L78.8248 16.3773C78.7572 16.7858 78.6326 17.1357 78.4342 17.4188C78.2399 17.712 78.0013 17.9426 77.7057 18.1165C77.4122 18.2904 77.0786 18.4098 76.707 18.4886C76.3206 18.5675 75.9089 18.5938 75.4592 18.5938C74.8996 18.5938 74.4056 18.5412 73.9643 18.4219C73.5209 18.3167 73.1303 18.1165 72.822 17.8475C72.5138 17.5766 72.2772 17.2146 72.1105 16.7656C71.9437 16.3268 71.8613 15.7746 71.8613 15.1214C71.8613 14.4541 71.9416 13.8878 72.1084 13.4369C72.273 12.9879 72.5095 12.6138 72.8178 12.3306L72.8199 12.3286C73.1261 12.0617 73.504 11.8615 73.9474 11.7421H73.9495C74.3887 11.637 74.8828 11.5723 75.4296 11.5723C76.4705 11.5723 77.3024 11.823 77.9168 12.3306C78.5207 12.8443 78.8227 13.6188 78.8227 14.6442V15.5927H73.2148C73.2232 15.9648 73.2865 16.2742 73.3837 16.5047C73.4871 16.7514 73.6413 16.9476 73.8313 17.0932C74.0213 17.2409 74.2514 17.3379 74.5238 17.3885C74.8025 17.439 75.1087 17.4653 75.4549 17.4653C75.7231 17.4653 75.9617 17.4532 76.1982 17.4147H76.2024C76.4199 17.3885 76.6141 17.3278 76.7957 17.2409L76.7978 17.2388H76.7999C76.973 17.168 77.1103 17.0609 77.2391 16.9133ZM73.8841 13.0668C73.694 13.2002 73.5399 13.3842 73.4237 13.631C73.3161 13.8595 73.2507 14.1467 73.2295 14.5148H77.4481C77.4418 14.171 77.389 13.8959 77.294 13.6674C77.1905 13.4186 77.0617 13.2366 76.8864 13.091C76.7091 12.9555 76.5043 12.8585 76.2594 12.7958C76.0081 12.7452 75.7294 12.7068 75.4275 12.7068C75.1087 12.7068 74.83 12.7331 74.5661 12.7836C74.3085 12.8322 74.0762 12.9312 73.8841 13.0668Z" fill="#0656FE"/>
    <path d="M88.3414 16.2156C88.3668 15.9466 88.3943 15.6008 88.3943 15.164V11.7705H94.0486V18.4037H92.6909V12.903H89.7118V15.3197C89.7118 16.3612 89.5492 17.1418 89.2409 17.6393C88.9242 18.1611 88.4069 18.4037 87.708 18.4037H87.4082V17.2065H87.4927C87.6616 17.2065 87.7946 17.1803 87.898 17.1257L87.9023 17.1236L87.9044 17.1216C88.0015 17.0811 88.0986 16.982 88.1747 16.8365C88.2485 16.6929 88.3013 16.4967 88.3414 16.2156Z" fill="#0656FE"/>
    <path d="M69.681 16.1971C69.6282 16.4601 69.5374 16.6683 69.4255 16.8261C69.2967 16.998 69.1573 17.1193 68.9927 17.2164C68.8132 17.3134 68.621 17.3761 68.3993 17.4126C68.1629 17.451 67.9243 17.4631 67.6561 17.4631C67.2951 17.4631 66.9784 17.4368 66.7018 17.3741C66.4167 17.3115 66.1887 17.2023 66.0135 17.0344L66.0114 17.0323C65.8213 16.8625 65.6798 16.6299 65.5743 16.3286C65.4708 16.0293 65.4159 15.6248 65.4159 15.1253C65.4159 14.6136 65.4687 14.2072 65.5743 13.8816C65.6798 13.5661 65.8213 13.3214 66.0114 13.1535L66.0135 13.1515C66.1887 12.9837 66.4167 12.8724 66.7018 12.8118C66.9784 12.7491 67.2972 12.7107 67.6561 12.7107C67.9053 12.7107 68.1438 12.7349 68.3592 12.7612C68.5662 12.7996 68.7583 12.8603 68.9377 12.9574C69.1024 13.0545 69.2439 13.1778 69.3727 13.3375C69.4867 13.4953 69.5775 13.6915 69.6282 13.9402L69.6408 14.0049H71.0006L70.9816 13.9099C70.8993 13.4771 70.7747 13.1029 70.5783 12.8057C70.384 12.5124 70.1455 12.2718 69.8668 12.0837L69.8647 12.0817C69.586 11.9078 69.2502 11.7743 68.8786 11.6954C68.4943 11.6165 68.0953 11.5781 67.6582 11.5781C67.0966 11.5781 66.6046 11.6428 66.1655 11.748H66.1634C65.72 11.8673 65.3294 12.0675 65.0211 12.3345L65.019 12.3365C64.7107 12.6196 64.4743 12.9937 64.3096 13.4427C64.1427 13.8937 64.0625 14.46 64.0625 15.1273C64.0625 15.7806 64.1449 16.3326 64.3096 16.7715C64.4743 17.2204 64.7128 17.5824 65.0211 17.8534C65.3294 18.1224 65.72 18.3226 66.1634 18.4278C66.6046 18.5471 67.0987 18.5997 67.6582 18.5997C68.1101 18.5997 68.5218 18.5613 68.9061 18.4824C69.2798 18.4035 69.6134 18.27 69.9069 18.0819C70.2025 17.8939 70.439 17.6532 70.6353 17.3458C70.8317 17.0485 70.9562 16.6744 71.0259 16.2274L71.0407 16.1344H69.6979L69.681 16.1971Z" fill="#0656FE"/>
    <path d="M100.64 16.1971L100.653 16.1304V16.1344H102L101.985 16.2274C101.915 16.6744 101.791 17.0485 101.594 17.3458C101.398 17.6532 101.161 17.8939 100.866 18.0819C100.572 18.27 100.239 18.4035 99.8652 18.4824C99.4805 18.5613 99.0691 18.5997 98.6174 18.5997C98.0577 18.5997 97.5639 18.5471 97.1223 18.4278C96.679 18.3226 96.2883 18.1224 95.9801 17.8534C95.6718 17.5824 95.4353 17.2204 95.2685 16.7715C95.1038 16.3326 95.0215 15.7806 95.0215 15.1273C95.0215 14.46 95.1017 13.8937 95.2685 13.4427C95.4332 12.9937 95.6697 12.6196 95.978 12.3365L95.9801 12.3345C96.2883 12.0675 96.679 11.8673 97.1223 11.748H97.1245C97.5639 11.6428 98.0558 11.5781 98.6174 11.5781C99.0544 11.5781 99.4531 11.6165 99.8377 11.6954C100.211 11.7743 100.545 11.9078 100.823 12.0817L100.826 12.0837C101.105 12.2718 101.343 12.5124 101.537 12.8057C101.734 13.1029 101.858 13.4771 101.94 13.9099L101.959 14.0049H100.6L100.587 13.9402C100.537 13.6915 100.446 13.4953 100.332 13.3375C100.203 13.1778 100.061 13.0545 99.8965 12.9574C99.7169 12.8603 99.5253 12.7996 99.3183 12.7612C99.103 12.7349 98.864 12.7107 98.6149 12.7107C98.2564 12.7107 97.9376 12.7491 97.661 12.8118C97.3757 12.8724 97.1476 12.9837 96.9724 13.1515L96.9703 13.1535C96.7803 13.3214 96.6388 13.5661 96.5332 13.8816C96.4277 14.2072 96.3749 14.6136 96.3749 15.1253C96.3749 15.6248 96.4298 16.0293 96.5332 16.3286C96.6388 16.6299 96.7803 16.8625 96.9703 17.0323L96.9724 17.0344C97.1476 17.2023 97.3757 17.3115 97.661 17.3741C97.9376 17.4368 98.2539 17.4631 98.6149 17.4631C98.8832 17.4631 99.1221 17.451 99.3585 17.4126C99.5802 17.3761 99.7719 17.3134 99.9514 17.2164C100.116 17.1193 100.256 16.998 100.385 16.8261C100.496 16.6683 100.587 16.4601 100.64 16.1971Z" fill="#0656FE"/>
    <path fill-rule="evenodd" clip-rule="evenodd" d="M62.0502 12.1343C61.4907 11.7582 60.7137 11.5762 59.7445 11.5762C59.2801 11.5762 58.8557 11.6146 58.4967 11.6955C58.123 11.7744 57.8021 11.9078 57.536 12.0838L57.5339 12.0858C57.2658 12.2759 57.0546 12.5166 56.8878 12.8118C56.7189 13.1091 56.6091 13.4812 56.5542 13.916L56.5437 14.007H57.8612L57.8718 13.9383C57.9118 13.6855 57.9752 13.4893 58.0765 13.3336L58.0808 13.3295C58.1694 13.1718 58.2814 13.0525 58.4312 12.9574C58.5812 12.8623 58.7585 12.7997 58.9781 12.7633C59.1914 12.737 59.4574 12.7127 59.7488 12.7127C60.4181 12.7127 60.8678 12.828 61.1444 13.0201C61.4126 13.2061 61.5562 13.5257 61.5562 14.0029V14.46C61.3991 14.4582 61.2552 14.4485 61.1187 14.4393L61.0663 14.4357H61.0578C60.8868 14.4357 60.7137 14.4236 60.5384 14.4094H60.53C60.4392 14.4094 60.3505 14.4074 60.2555 14.4034H60.2471C60.1499 14.3994 60.0465 14.3973 59.9367 14.3973C59.8353 14.3973 59.7319 14.3953 59.62 14.3913H59.601C59.4827 14.3872 59.356 14.3852 59.2209 14.3852C58.634 14.3852 58.1505 14.4499 57.7746 14.5713H57.7725C57.4009 14.7027 57.1053 14.8624 56.892 15.0687C56.6661 15.273 56.5226 15.5035 56.4381 15.7482C56.3536 15.9909 56.3262 16.2336 56.3262 16.4601C56.3262 16.8403 56.3811 17.178 56.5226 17.4531C56.6493 17.722 56.8329 17.9526 57.0757 18.1164C57.3038 18.2923 57.5846 18.4137 57.9034 18.4926C58.2244 18.5734 58.5706 18.5997 58.9507 18.5997C59.5271 18.5997 60.0549 18.5067 60.5279 18.2943C60.9861 18.088 61.3302 17.7665 61.5562 17.3358V18.4056H62.9138V13.9989C62.9116 13.1515 62.6203 12.5145 62.0502 12.1343ZM61.5541 16.0536C61.5287 16.3549 61.4485 16.5976 61.326 16.7756C61.1972 16.9596 61.0325 17.1052 60.8319 17.2003C60.6229 17.2993 60.3885 17.3742 60.1267 17.4126C59.8607 17.451 59.6094 17.4631 59.3413 17.4631C58.7501 17.4631 58.3236 17.3863 58.0597 17.2407C57.8126 17.1052 57.6838 16.8544 57.6838 16.4439C57.6838 16.3064 57.6965 16.1749 57.7451 16.0597L57.7493 16.0516C57.7831 15.9403 57.8654 15.8251 58.0027 15.7321L58.0069 15.728C58.1272 15.637 58.3257 15.5622 58.5938 15.4975C58.8578 15.4469 59.2293 15.4085 59.6833 15.4085C59.8121 15.4085 59.9452 15.4105 60.0866 15.4146H60.1056C60.2534 15.4186 60.4096 15.4206 60.5722 15.4206C60.8742 15.4327 61.2078 15.4449 61.5562 15.457V16.0536H61.5541Z" fill="#0656FE"/>
    <path fill-rule="evenodd" clip-rule="evenodd" d="M46.2202 15.0527C46.7079 15.1114 47.1049 15.2408 47.3941 15.4653C47.6876 15.7181 47.8418 16.0922 47.8396 16.6019C47.8396 16.8607 47.7826 17.0892 47.6981 17.3036C47.6116 17.5241 47.468 17.7162 47.2696 17.88C47.0732 18.0417 46.8346 18.1772 46.5538 18.2703H46.5516C46.256 18.3653 45.9225 18.4037 45.5382 18.4037H41.5898V11.7705H45.2426C45.6817 11.7705 46.0576 11.8231 46.3638 11.9161H46.368C46.672 12.0213 46.9127 12.1426 47.1112 12.3064C47.3075 12.4702 47.4532 12.6482 47.5398 12.8565C47.6243 13.0587 47.6665 13.263 47.6665 13.4814C47.6665 13.9607 47.5271 14.3469 47.2632 14.5997L47.2611 14.6018C47.0035 14.8364 46.6573 14.982 46.2202 15.0305V15.0527ZM45.1497 12.903H42.9496V14.5128H45.3946C45.762 14.5128 46.0006 14.4258 46.1251 14.2742C46.2497 14.1063 46.3236 13.9162 46.3236 13.6755C46.3236 13.5562 46.3004 13.449 46.273 13.3459C46.2518 13.267 46.199 13.2023 46.1209 13.1275C46.0407 13.0628 45.9225 13.0142 45.762 12.9637C45.6079 12.9273 45.3988 12.903 45.1497 12.903ZM45.27 17.2712C45.6543 17.2712 45.9499 17.2085 46.1759 17.0872C46.3848 16.976 46.4968 16.7738 46.4968 16.4583C46.4968 16.2035 46.4207 16.0032 46.273 15.8374C46.1357 15.6857 45.8464 15.5947 45.3777 15.5947H42.9496V17.2712H45.27Z" fill="#0656FE"/>
    <path d="M50.2601 16.2343V11.771H48.9004V18.4042H49.6985L53.8749 13.9895V18.4042H55.2325V11.771H54.4344L50.2601 16.2343Z" fill="#0656FE"/>
    <path fill-rule="evenodd" clip-rule="evenodd" d="M37.0613 11.5762C38.0304 11.5762 38.8074 11.7582 39.3669 12.1343C39.9349 12.5145 40.2263 13.1515 40.2263 13.9989V18.4036H38.8686V17.3337C38.6427 17.7645 38.3007 18.0861 37.8404 18.2923C37.3674 18.5047 36.8396 18.5977 36.2632 18.5977C35.8831 18.5977 35.5368 18.5714 35.2159 18.4905C34.8971 18.4116 34.6163 18.2903 34.3882 18.1144C34.1454 17.9505 33.9617 17.72 33.835 17.451C33.6936 17.176 33.6387 16.8382 33.6387 16.4581C33.6387 16.2316 33.6661 15.9889 33.7506 15.7462C33.835 15.5015 33.9786 15.271 34.2045 15.0667C34.4199 14.8624 34.7155 14.7027 35.0829 14.5713H35.085C35.4608 14.4499 35.9443 14.3852 36.5313 14.3852C36.6664 14.3852 36.7931 14.3872 36.9114 14.3913H36.9304C37.0423 14.3953 37.1457 14.3973 37.2471 14.3973C37.3569 14.3973 37.4603 14.3994 37.5574 14.4034H37.5659C37.6609 14.4074 37.7496 14.4094 37.8404 14.4094H37.8488C38.0262 14.4236 38.1993 14.4357 38.3703 14.4357H38.3788L38.4312 14.4393C38.5677 14.4485 38.7115 14.4582 38.8686 14.46V13.9989C38.8686 13.5216 38.7251 13.2021 38.4569 13.0161C38.1803 12.8239 37.7306 12.7087 37.0613 12.7087C36.7699 12.7087 36.5039 12.7329 36.2906 12.7592C36.0689 12.7956 35.8937 12.8583 35.7437 12.9534C35.5938 13.0484 35.4819 13.1677 35.3933 13.3255L35.3911 13.3275V13.3315C35.2919 13.4872 35.2265 13.6834 35.1863 13.9362L35.1758 14.005H33.8583L33.8688 13.914C33.9237 13.4792 34.0335 13.1071 34.2024 12.8098C34.3692 12.5145 34.5804 12.2739 34.8485 12.0838L34.8506 12.0817C35.1167 11.9058 35.4376 11.7744 35.8134 11.6955C36.1724 11.6146 36.5968 11.5762 37.0613 11.5762ZM38.6406 16.7756C38.7631 16.5976 38.8412 16.3549 38.8686 16.0536H38.8707V15.457C38.5224 15.4449 38.1866 15.4327 37.8868 15.4206C37.7243 15.4206 37.568 15.4186 37.4202 15.4146H37.4012C37.2597 15.4105 37.1267 15.4085 36.9979 15.4085C36.544 15.4085 36.1724 15.4469 35.9084 15.4975C35.6403 15.5622 35.4418 15.637 35.3215 15.728L35.3172 15.7321C35.18 15.8251 35.0977 15.9403 35.0639 16.0516L35.0597 16.0597C35.0111 16.1749 34.9984 16.3064 34.9984 16.4439C34.9984 16.8544 35.1272 17.1052 35.3743 17.2407C35.6382 17.3863 36.0647 17.4631 36.6559 17.4631C36.924 17.4631 37.1753 17.451 37.4413 17.4126C37.7031 17.3742 37.9375 17.2993 38.1465 17.2003C38.3471 17.1052 38.5139 16.9596 38.6406 16.7756Z" fill="#0656FE"/>
    <path d="M81.3615 16.2338V11.7705H80.0039V18.4037H80.7999L84.9762 13.989V18.4037H86.3339V11.7705H85.5358L81.3615 16.2338Z" fill="#0656FE"/>
    <path d="M18.0066 15.6689C17.8293 15.6689 17.6855 15.8039 17.6855 15.9704V16.1255L17.6859 16.133C17.7193 16.7605 18.2234 17.389 19.0812 17.4509L19.0935 17.4518H19.2629C19.4402 17.4518 19.5839 17.3168 19.5839 17.1503C19.5839 16.9838 19.4402 16.8488 19.2629 16.8488H19.119C18.6259 16.8082 18.3497 16.4601 18.3276 16.1098V15.9704C18.3276 15.8039 18.1839 15.6689 18.0066 15.6689Z" fill="#0656FE"/>
    <path fill-rule="evenodd" clip-rule="evenodd" d="M18.887 10.7968C17.2276 10.8654 15.9448 12.1447 15.8615 13.7026C15.8197 14.484 15.7871 15.1827 15.7871 15.8322C15.7871 16.438 15.8155 17.0445 15.8532 17.7417C15.937 19.2919 17.2178 20.5596 18.869 20.6291C19.119 20.6397 19.3614 20.6459 19.5839 20.6459C19.8134 20.6459 20.064 20.6392 20.3224 20.6281C21.9629 20.5575 23.2388 19.3047 23.3197 17.7643C23.3549 17.0937 23.3807 16.4944 23.3807 15.8322C23.3807 15.0925 23.352 14.4102 23.3138 13.6731C23.2338 12.1281 21.9569 10.8682 20.3114 10.7981C20.0569 10.7872 19.8102 10.7808 19.5839 10.7808C19.3667 10.7808 19.1307 10.7867 18.887 10.7968ZM16.7843 13.8813C16.8472 12.6938 17.8073 11.7239 19.044 11.6704C19.2329 11.6622 19.4159 11.6573 19.5839 11.6573C19.7603 11.6573 19.9533 11.6627 20.1522 11.6716C21.3759 11.7265 22.3297 12.6783 22.3889 13.8535C22.3946 13.9656 22.3999 14.061 22.4046 14.1475C22.4209 14.4409 22.4315 14.6332 22.4315 15.0317C22.4315 15.4248 22.4199 15.6486 22.4025 15.985C22.3997 16.0391 22.3967 16.0961 22.3936 16.1572C22.3343 17.3279 21.3815 18.2729 20.1625 18.3283C19.96 18.3375 19.7634 18.343 19.5839 18.343C19.411 18.343 19.2221 18.3379 19.0273 18.3293C17.7983 18.2749 16.8402 17.3158 16.7778 16.1356C16.7737 16.0585 16.7698 15.988 16.7662 15.9219C16.7483 15.597 16.7364 15.3798 16.7364 15.0317C16.7364 14.6973 16.7473 14.5137 16.764 14.2348C16.7702 14.1335 16.7769 14.0196 16.7843 13.8813Z" fill="#0656FE"/>
    <path fill-rule="evenodd" clip-rule="evenodd" d="M15.5095 7.19971H23.6563C25.4443 7.19971 25.9065 7.37395 26.353 7.59822C26.8351 7.84034 27.2063 8.18897 27.4641 8.64169C27.7029 9.06106 27.8885 9.49505 27.8885 11.1743V11.4387C27.8885 11.5603 27.7846 11.6594 27.6553 11.6645C27.6155 11.6661 27.5752 11.6679 27.5346 11.6699C26.4526 11.7234 25.6125 12.6933 25.5574 13.8808C25.551 14.0182 25.5451 14.1317 25.5398 14.2325L25.5397 14.2337C25.5251 14.5126 25.5154 14.6968 25.5154 15.0312C25.5154 15.3793 25.5259 15.5962 25.5415 15.921C25.5447 15.9872 25.5481 16.0579 25.5517 16.1351C25.6063 17.3153 26.4446 18.2744 27.5201 18.3288C27.5656 18.3311 27.6107 18.3331 27.6553 18.3349C27.7846 18.3401 27.8885 18.4391 27.8885 18.5606V18.8251C27.8885 20.5043 27.7029 20.9384 27.4641 21.3577C27.2063 21.8104 26.8351 22.1591 26.353 22.4012C25.9065 22.6255 25.4443 22.7997 23.6563 22.7997H15.5095C13.7215 22.7997 13.2593 22.6255 12.8128 22.4012C12.3307 22.1591 11.9595 21.8104 11.7017 21.3577C11.4629 20.9384 11.2773 20.5043 11.2773 18.8251V18.5606C11.2773 18.4391 11.3812 18.3401 11.5105 18.3349C11.5614 18.3329 11.6129 18.3305 11.6649 18.3278C12.7316 18.2724 13.5653 17.3274 13.6171 16.1567C13.6198 16.0966 13.6223 16.0404 13.6248 15.9871L13.6249 15.9844C13.6402 15.6479 13.6504 15.4243 13.6504 15.0312C13.6504 14.6327 13.641 14.4403 13.6268 14.1469C13.6226 14.0603 13.618 13.9651 13.613 13.853C13.5612 12.6778 12.7267 11.726 11.6559 11.6711C11.607 11.6686 11.5584 11.6664 11.5105 11.6645C11.3812 11.6594 11.2773 11.5603 11.2773 11.4387V11.1743C11.2773 9.49505 11.4629 9.06106 11.7017 8.64169C11.9595 8.18897 12.3307 7.84034 12.8128 7.59822C13.2593 7.37395 13.7215 7.19971 15.5095 7.19971ZM18.8498 10.0245C16.7372 10.1118 15.1419 11.7354 15.0388 13.6634C14.9971 14.4448 14.9635 15.1607 14.9635 15.8317C14.9635 16.4587 14.9928 17.0822 15.0306 17.7803C15.1346 19.7034 16.7306 21.3119 18.8311 21.4004C19.0896 21.4112 19.3448 21.418 19.5829 21.418C19.8285 21.418 20.0922 21.4108 20.3591 21.3994C22.4444 21.3095 24.0396 19.7197 24.1403 17.8018C24.1757 17.1276 24.2024 16.5133 24.2024 15.8317C24.2024 15.0731 24.1728 14.3759 24.1345 13.6351C24.035 11.7141 22.4405 10.115 20.3477 10.0258C20.0847 10.0146 19.825 10.0077 19.5829 10.0077C19.3505 10.0077 19.1019 10.014 18.8498 10.0245Z" fill="#0656FE"/>
</svg>
