<svg width="63" height="59" viewBox="0 0 63 59" fill="none" xmlns="http://www.w3.org/2000/svg">
    <path d="M0.5 56.5L6.00072 58.2537L4.76911 52.6131L0.5 56.5ZM42.9469 1.49713C49.6815 2.22141 54.9508 4.95012 58.0208 8.82121C61.079 12.6775 61.9965 17.7166 59.9535 23.1936C57.9036 28.6892 52.8581 34.6547 43.9277 40.2537C35.0016 45.8499 22.2258 51.0592 4.77915 55.0539L5.00234 56.0287C22.5231 52.017 35.4117 46.773 44.4588 41.1009C53.5016 35.4315 58.7379 29.3137 60.8905 23.5431C63.0499 17.7538 62.0905 12.3436 58.8043 8.19984C55.5298 4.07081 49.987 1.24849 43.0538 0.502867L42.9469 1.49713Z" fill="#ED1B34"/>
</svg>
