<svg width="60" height="60" viewBox="0 0 60 60" fill="none" xmlns="http://www.w3.org/2000/svg">
    <circle cx="30" cy="30" r="30" fill="#ED1B34" fill-opacity="0.15"/>
    <path d="M14.5748 13.5582C13.8702 13.3694 13.1458 13.7876 12.9569 14.4923L11.452 20.1088C11.3658 20.4304 11.4421 20.7785 11.6702 21.0209C12.7311 22.1482 13.2038 23.7791 12.7737 25.3843C12.3436 26.9893 11.1187 28.1655 9.63639 28.6113C9.31755 28.7072 9.07749 28.9706 8.99133 29.2921L7.48639 34.9086C7.29757 35.6133 7.71582 36.3377 8.4205 36.5265L45.4251 46.4419C46.1297 46.6307 46.8541 46.2124 47.043 45.5078L52.5135 25.0915C52.7023 24.3867 52.2841 23.6624 51.5794 23.4736L14.5748 13.5582Z" fill="#ED1B34" fill-opacity="0.2"/>
    <mask id="path-3-outside-1_159_2944" maskUnits="userSpaceOnUse" x="8.52441" y="17.1104" width="43" height="26" fill="black">
        <rect fill="white" x="8.52441" y="17.1104" width="43" height="26"/>
        <path d="M49.1554 18.1104H18.7716V18.7709C18.7717 18.8576 18.7546 18.9435 18.7215 19.0237C18.6883 19.1039 18.6396 19.1767 18.5783 19.238C18.517 19.2994 18.4441 19.348 18.364 19.3812C18.2838 19.4144 18.1979 19.4314 18.1111 19.4314C18.0244 19.4314 17.9385 19.4144 17.8583 19.3812C17.7781 19.348 17.7053 19.2994 17.644 19.238C17.5826 19.1767 17.534 19.1039 17.5008 19.0237C17.4676 18.9435 17.4506 18.8576 17.4506 18.7709V18.1104H10.8454C10.1159 18.1104 9.52441 18.7018 9.52441 19.4314V25.246C9.52441 25.579 9.68814 25.8954 9.97129 26.0706C11.2877 26.8848 12.1665 28.3379 12.1665 29.9996C12.1665 31.6613 11.2877 33.1145 9.97129 33.9287C9.68814 34.1039 9.52441 34.4204 9.52441 34.7533V40.5679C9.52441 41.2974 10.1159 41.8889 10.8454 41.8889H17.4506V41.2284C17.4506 41.1416 17.4676 41.0557 17.5008 40.9756C17.534 40.8954 17.5826 40.8226 17.644 40.7612C17.7053 40.6999 17.7781 40.6512 17.8583 40.618C17.9385 40.5849 18.0244 40.5678 18.1111 40.5679C18.1979 40.5678 18.2838 40.5849 18.364 40.618C18.4441 40.6512 18.517 40.6999 18.5783 40.7612C18.6396 40.8226 18.6883 40.8954 18.7215 40.9756C18.7546 41.0557 18.7717 41.1416 18.7716 41.2284V41.8889H49.1554C49.8849 41.8889 50.4764 41.2974 50.4764 40.5679V19.4314C50.4764 18.7018 49.8849 18.1104 49.1554 18.1104ZM18.7716 38.5863C18.7717 38.6731 18.7546 38.759 18.7215 38.8392C18.6883 38.9193 18.6396 38.9922 18.5783 39.0535C18.517 39.1149 18.4441 39.1635 18.364 39.1967C18.2838 39.2299 18.1979 39.2469 18.1111 39.2469C18.0244 39.2469 17.9385 39.2299 17.8583 39.1967C17.7781 39.1635 17.7053 39.1149 17.644 39.0535C17.5826 38.9922 17.534 38.9193 17.5008 38.8392C17.4676 38.759 17.4506 38.6731 17.4506 38.5863V37.2653C17.4506 37.1786 17.4676 37.0927 17.5008 37.0125C17.534 36.9323 17.5826 36.8595 17.644 36.7982C17.7053 36.7368 17.7781 36.6882 17.8583 36.655C17.9385 36.6218 18.0244 36.6048 18.1111 36.6048C18.1979 36.6048 18.2838 36.6218 18.364 36.655C18.4441 36.6882 18.517 36.7368 18.5783 36.7982C18.6396 36.8595 18.6883 36.9323 18.7215 37.0125C18.7546 37.0927 18.7717 37.1786 18.7716 37.2653V38.5863ZM18.7716 34.6232C18.7717 34.71 18.7546 34.7959 18.7215 34.876C18.6883 34.9562 18.6396 35.029 18.5783 35.0904C18.517 35.1517 18.4441 35.2004 18.364 35.2335C18.2838 35.2667 18.1979 35.2838 18.1111 35.2837C18.0244 35.2838 17.9385 35.2667 17.8583 35.2335C17.7781 35.2004 17.7053 35.1517 17.644 35.0904C17.5826 35.029 17.534 34.9562 17.5008 34.876C17.4676 34.7959 17.4506 34.71 17.4506 34.6232V33.3022C17.4506 33.2154 17.4676 33.1295 17.5008 33.0494C17.534 32.9692 17.5826 32.8964 17.644 32.835C17.7053 32.7737 17.7781 32.725 17.8583 32.6918C17.9385 32.6587 18.0244 32.6416 18.1111 32.6417C18.1979 32.6416 18.2838 32.6587 18.364 32.6918C18.4441 32.725 18.517 32.7737 18.5783 32.835C18.6396 32.8964 18.6883 32.9692 18.7215 33.0494C18.7546 33.1295 18.7717 33.2154 18.7716 33.3022V34.6232ZM18.7716 30.6601C18.7717 30.7469 18.7546 30.8328 18.7215 30.913C18.6883 30.9931 18.6396 31.066 18.5783 31.1273C18.517 31.1886 18.4441 31.2373 18.364 31.2705C18.2838 31.3036 18.1979 31.3207 18.1111 31.3206C18.0244 31.3207 17.9385 31.3036 17.8583 31.2705C17.7781 31.2373 17.7053 31.1886 17.644 31.1273C17.5826 31.066 17.534 30.9931 17.5008 30.913C17.4676 30.8328 17.4506 30.7469 17.4506 30.6601V29.3391C17.4506 29.2524 17.4676 29.1664 17.5008 29.0863C17.534 29.0061 17.5826 28.9333 17.644 28.8719C17.7053 28.8106 17.7781 28.7619 17.8583 28.7288C17.9385 28.6956 18.0244 28.6786 18.1111 28.6786C18.1979 28.6786 18.2838 28.6956 18.364 28.7288C18.4441 28.7619 18.517 28.8106 18.5783 28.8719C18.6396 28.9333 18.6883 29.0061 18.7215 29.0863C18.7546 29.1664 18.7717 29.2524 18.7716 29.3391V30.6601ZM18.7716 26.6971C18.7717 26.7838 18.7546 26.8697 18.7215 26.9499C18.6883 27.0301 18.6396 27.1029 18.5783 27.1642C18.517 27.2256 18.4441 27.2742 18.364 27.3074C18.2838 27.3406 18.1979 27.3576 18.1111 27.3576C18.0244 27.3576 17.9385 27.3406 17.8583 27.3074C17.7781 27.2742 17.7053 27.2256 17.644 27.1642C17.5826 27.1029 17.534 27.0301 17.5008 26.9499C17.4676 26.8697 17.4506 26.7838 17.4506 26.6971V25.376C17.4506 25.2893 17.4676 25.2034 17.5008 25.1232C17.534 25.0431 17.5826 24.9702 17.644 24.9089C17.7053 24.8475 17.7781 24.7989 17.8583 24.7657C17.9385 24.7325 18.0244 24.7155 18.1111 24.7155C18.1979 24.7155 18.2838 24.7325 18.364 24.7657C18.4441 24.7989 18.517 24.8475 18.5783 24.9089C18.6396 24.9702 18.6883 25.0431 18.7215 25.1232C18.7546 25.2034 18.7717 25.2893 18.7716 25.376V26.6971ZM18.7716 22.7339C18.7717 22.8207 18.7546 22.9066 18.7215 22.9868C18.6883 23.0669 18.6396 23.1398 18.5783 23.2011C18.517 23.2624 18.4441 23.3111 18.364 23.3443C18.2838 23.3774 18.1979 23.3945 18.1111 23.3944C18.0244 23.3945 17.9385 23.3774 17.8583 23.3443C17.7781 23.3111 17.7053 23.2624 17.644 23.2011C17.5826 23.1398 17.534 23.0669 17.5008 22.9868C17.4676 22.9066 17.4506 22.8207 17.4506 22.7339V21.4129C17.4506 21.3262 17.4676 21.2402 17.5008 21.1601C17.534 21.0799 17.5826 21.0071 17.644 20.9457C17.7053 20.8844 17.7781 20.8357 17.8583 20.8026C17.9385 20.7694 18.0244 20.7523 18.1111 20.7524C18.1979 20.7523 18.2838 20.7694 18.364 20.8026C18.4441 20.8357 18.517 20.8844 18.5783 20.9457C18.6396 21.0071 18.6883 21.0799 18.7215 21.1601C18.7546 21.2402 18.7717 21.3262 18.7716 21.4129V22.7339Z"/>
    </mask>
    <path d="M49.1554 18.1104H18.7716V18.7709C18.7717 18.8576 18.7546 18.9435 18.7215 19.0237C18.6883 19.1039 18.6396 19.1767 18.5783 19.238C18.517 19.2994 18.4441 19.348 18.364 19.3812C18.2838 19.4144 18.1979 19.4314 18.1111 19.4314C18.0244 19.4314 17.9385 19.4144 17.8583 19.3812C17.7781 19.348 17.7053 19.2994 17.644 19.238C17.5826 19.1767 17.534 19.1039 17.5008 19.0237C17.4676 18.9435 17.4506 18.8576 17.4506 18.7709V18.1104H10.8454C10.1159 18.1104 9.52441 18.7018 9.52441 19.4314V25.246C9.52441 25.579 9.68814 25.8954 9.97129 26.0706C11.2877 26.8848 12.1665 28.3379 12.1665 29.9996C12.1665 31.6613 11.2877 33.1145 9.97129 33.9287C9.68814 34.1039 9.52441 34.4204 9.52441 34.7533V40.5679C9.52441 41.2974 10.1159 41.8889 10.8454 41.8889H17.4506V41.2284C17.4506 41.1416 17.4676 41.0557 17.5008 40.9756C17.534 40.8954 17.5826 40.8226 17.644 40.7612C17.7053 40.6999 17.7781 40.6512 17.8583 40.618C17.9385 40.5849 18.0244 40.5678 18.1111 40.5679C18.1979 40.5678 18.2838 40.5849 18.364 40.618C18.4441 40.6512 18.517 40.6999 18.5783 40.7612C18.6396 40.8226 18.6883 40.8954 18.7215 40.9756C18.7546 41.0557 18.7717 41.1416 18.7716 41.2284V41.8889H49.1554C49.8849 41.8889 50.4764 41.2974 50.4764 40.5679V19.4314C50.4764 18.7018 49.8849 18.1104 49.1554 18.1104ZM18.7716 38.5863C18.7717 38.6731 18.7546 38.759 18.7215 38.8392C18.6883 38.9193 18.6396 38.9922 18.5783 39.0535C18.517 39.1149 18.4441 39.1635 18.364 39.1967C18.2838 39.2299 18.1979 39.2469 18.1111 39.2469C18.0244 39.2469 17.9385 39.2299 17.8583 39.1967C17.7781 39.1635 17.7053 39.1149 17.644 39.0535C17.5826 38.9922 17.534 38.9193 17.5008 38.8392C17.4676 38.759 17.4506 38.6731 17.4506 38.5863V37.2653C17.4506 37.1786 17.4676 37.0927 17.5008 37.0125C17.534 36.9323 17.5826 36.8595 17.644 36.7982C17.7053 36.7368 17.7781 36.6882 17.8583 36.655C17.9385 36.6218 18.0244 36.6048 18.1111 36.6048C18.1979 36.6048 18.2838 36.6218 18.364 36.655C18.4441 36.6882 18.517 36.7368 18.5783 36.7982C18.6396 36.8595 18.6883 36.9323 18.7215 37.0125C18.7546 37.0927 18.7717 37.1786 18.7716 37.2653V38.5863ZM18.7716 34.6232C18.7717 34.71 18.7546 34.7959 18.7215 34.876C18.6883 34.9562 18.6396 35.029 18.5783 35.0904C18.517 35.1517 18.4441 35.2004 18.364 35.2335C18.2838 35.2667 18.1979 35.2838 18.1111 35.2837C18.0244 35.2838 17.9385 35.2667 17.8583 35.2335C17.7781 35.2004 17.7053 35.1517 17.644 35.0904C17.5826 35.029 17.534 34.9562 17.5008 34.876C17.4676 34.7959 17.4506 34.71 17.4506 34.6232V33.3022C17.4506 33.2154 17.4676 33.1295 17.5008 33.0494C17.534 32.9692 17.5826 32.8964 17.644 32.835C17.7053 32.7737 17.7781 32.725 17.8583 32.6918C17.9385 32.6587 18.0244 32.6416 18.1111 32.6417C18.1979 32.6416 18.2838 32.6587 18.364 32.6918C18.4441 32.725 18.517 32.7737 18.5783 32.835C18.6396 32.8964 18.6883 32.9692 18.7215 33.0494C18.7546 33.1295 18.7717 33.2154 18.7716 33.3022V34.6232ZM18.7716 30.6601C18.7717 30.7469 18.7546 30.8328 18.7215 30.913C18.6883 30.9931 18.6396 31.066 18.5783 31.1273C18.517 31.1886 18.4441 31.2373 18.364 31.2705C18.2838 31.3036 18.1979 31.3207 18.1111 31.3206C18.0244 31.3207 17.9385 31.3036 17.8583 31.2705C17.7781 31.2373 17.7053 31.1886 17.644 31.1273C17.5826 31.066 17.534 30.9931 17.5008 30.913C17.4676 30.8328 17.4506 30.7469 17.4506 30.6601V29.3391C17.4506 29.2524 17.4676 29.1664 17.5008 29.0863C17.534 29.0061 17.5826 28.9333 17.644 28.8719C17.7053 28.8106 17.7781 28.7619 17.8583 28.7288C17.9385 28.6956 18.0244 28.6786 18.1111 28.6786C18.1979 28.6786 18.2838 28.6956 18.364 28.7288C18.4441 28.7619 18.517 28.8106 18.5783 28.8719C18.6396 28.9333 18.6883 29.0061 18.7215 29.0863C18.7546 29.1664 18.7717 29.2524 18.7716 29.3391V30.6601ZM18.7716 26.6971C18.7717 26.7838 18.7546 26.8697 18.7215 26.9499C18.6883 27.0301 18.6396 27.1029 18.5783 27.1642C18.517 27.2256 18.4441 27.2742 18.364 27.3074C18.2838 27.3406 18.1979 27.3576 18.1111 27.3576C18.0244 27.3576 17.9385 27.3406 17.8583 27.3074C17.7781 27.2742 17.7053 27.2256 17.644 27.1642C17.5826 27.1029 17.534 27.0301 17.5008 26.9499C17.4676 26.8697 17.4506 26.7838 17.4506 26.6971V25.376C17.4506 25.2893 17.4676 25.2034 17.5008 25.1232C17.534 25.0431 17.5826 24.9702 17.644 24.9089C17.7053 24.8475 17.7781 24.7989 17.8583 24.7657C17.9385 24.7325 18.0244 24.7155 18.1111 24.7155C18.1979 24.7155 18.2838 24.7325 18.364 24.7657C18.4441 24.7989 18.517 24.8475 18.5783 24.9089C18.6396 24.9702 18.6883 25.0431 18.7215 25.1232C18.7546 25.2034 18.7717 25.2893 18.7716 25.376V26.6971ZM18.7716 22.7339C18.7717 22.8207 18.7546 22.9066 18.7215 22.9868C18.6883 23.0669 18.6396 23.1398 18.5783 23.2011C18.517 23.2624 18.4441 23.3111 18.364 23.3443C18.2838 23.3774 18.1979 23.3945 18.1111 23.3944C18.0244 23.3945 17.9385 23.3774 17.8583 23.3443C17.7781 23.3111 17.7053 23.2624 17.644 23.2011C17.5826 23.1398 17.534 23.0669 17.5008 22.9868C17.4676 22.9066 17.4506 22.8207 17.4506 22.7339V21.4129C17.4506 21.3262 17.4676 21.2402 17.5008 21.1601C17.534 21.0799 17.5826 21.0071 17.644 20.9457C17.7053 20.8844 17.7781 20.8357 17.8583 20.8026C17.9385 20.7694 18.0244 20.7523 18.1111 20.7524C18.1979 20.7523 18.2838 20.7694 18.364 20.8026C18.4441 20.8357 18.517 20.8844 18.5783 20.9457C18.6396 21.0071 18.6883 21.0799 18.7215 21.1601C18.7546 21.2402 18.7717 21.3262 18.7716 21.4129V22.7339Z" fill="#ED1B34"/>
    <path d="M49.1554 18.1104H18.7716V18.7709C18.7717 18.8576 18.7546 18.9435 18.7215 19.0237C18.6883 19.1039 18.6396 19.1767 18.5783 19.238C18.517 19.2994 18.4441 19.348 18.364 19.3812C18.2838 19.4144 18.1979 19.4314 18.1111 19.4314C18.0244 19.4314 17.9385 19.4144 17.8583 19.3812C17.7781 19.348 17.7053 19.2994 17.644 19.238C17.5826 19.1767 17.534 19.1039 17.5008 19.0237C17.4676 18.9435 17.4506 18.8576 17.4506 18.7709V18.1104H10.8454C10.1159 18.1104 9.52441 18.7018 9.52441 19.4314V25.246C9.52441 25.579 9.68814 25.8954 9.97129 26.0706C11.2877 26.8848 12.1665 28.3379 12.1665 29.9996C12.1665 31.6613 11.2877 33.1145 9.97129 33.9287C9.68814 34.1039 9.52441 34.4204 9.52441 34.7533V40.5679C9.52441 41.2974 10.1159 41.8889 10.8454 41.8889H17.4506V41.2284C17.4506 41.1416 17.4676 41.0557 17.5008 40.9756C17.534 40.8954 17.5826 40.8226 17.644 40.7612C17.7053 40.6999 17.7781 40.6512 17.8583 40.618C17.9385 40.5849 18.0244 40.5678 18.1111 40.5679C18.1979 40.5678 18.2838 40.5849 18.364 40.618C18.4441 40.6512 18.517 40.6999 18.5783 40.7612C18.6396 40.8226 18.6883 40.8954 18.7215 40.9756C18.7546 41.0557 18.7717 41.1416 18.7716 41.2284V41.8889H49.1554C49.8849 41.8889 50.4764 41.2974 50.4764 40.5679V19.4314C50.4764 18.7018 49.8849 18.1104 49.1554 18.1104ZM18.7716 38.5863C18.7717 38.6731 18.7546 38.759 18.7215 38.8392C18.6883 38.9193 18.6396 38.9922 18.5783 39.0535C18.517 39.1149 18.4441 39.1635 18.364 39.1967C18.2838 39.2299 18.1979 39.2469 18.1111 39.2469C18.0244 39.2469 17.9385 39.2299 17.8583 39.1967C17.7781 39.1635 17.7053 39.1149 17.644 39.0535C17.5826 38.9922 17.534 38.9193 17.5008 38.8392C17.4676 38.759 17.4506 38.6731 17.4506 38.5863V37.2653C17.4506 37.1786 17.4676 37.0927 17.5008 37.0125C17.534 36.9323 17.5826 36.8595 17.644 36.7982C17.7053 36.7368 17.7781 36.6882 17.8583 36.655C17.9385 36.6218 18.0244 36.6048 18.1111 36.6048C18.1979 36.6048 18.2838 36.6218 18.364 36.655C18.4441 36.6882 18.517 36.7368 18.5783 36.7982C18.6396 36.8595 18.6883 36.9323 18.7215 37.0125C18.7546 37.0927 18.7717 37.1786 18.7716 37.2653V38.5863ZM18.7716 34.6232C18.7717 34.71 18.7546 34.7959 18.7215 34.876C18.6883 34.9562 18.6396 35.029 18.5783 35.0904C18.517 35.1517 18.4441 35.2004 18.364 35.2335C18.2838 35.2667 18.1979 35.2838 18.1111 35.2837C18.0244 35.2838 17.9385 35.2667 17.8583 35.2335C17.7781 35.2004 17.7053 35.1517 17.644 35.0904C17.5826 35.029 17.534 34.9562 17.5008 34.876C17.4676 34.7959 17.4506 34.71 17.4506 34.6232V33.3022C17.4506 33.2154 17.4676 33.1295 17.5008 33.0494C17.534 32.9692 17.5826 32.8964 17.644 32.835C17.7053 32.7737 17.7781 32.725 17.8583 32.6918C17.9385 32.6587 18.0244 32.6416 18.1111 32.6417C18.1979 32.6416 18.2838 32.6587 18.364 32.6918C18.4441 32.725 18.517 32.7737 18.5783 32.835C18.6396 32.8964 18.6883 32.9692 18.7215 33.0494C18.7546 33.1295 18.7717 33.2154 18.7716 33.3022V34.6232ZM18.7716 30.6601C18.7717 30.7469 18.7546 30.8328 18.7215 30.913C18.6883 30.9931 18.6396 31.066 18.5783 31.1273C18.517 31.1886 18.4441 31.2373 18.364 31.2705C18.2838 31.3036 18.1979 31.3207 18.1111 31.3206C18.0244 31.3207 17.9385 31.3036 17.8583 31.2705C17.7781 31.2373 17.7053 31.1886 17.644 31.1273C17.5826 31.066 17.534 30.9931 17.5008 30.913C17.4676 30.8328 17.4506 30.7469 17.4506 30.6601V29.3391C17.4506 29.2524 17.4676 29.1664 17.5008 29.0863C17.534 29.0061 17.5826 28.9333 17.644 28.8719C17.7053 28.8106 17.7781 28.7619 17.8583 28.7288C17.9385 28.6956 18.0244 28.6786 18.1111 28.6786C18.1979 28.6786 18.2838 28.6956 18.364 28.7288C18.4441 28.7619 18.517 28.8106 18.5783 28.8719C18.6396 28.9333 18.6883 29.0061 18.7215 29.0863C18.7546 29.1664 18.7717 29.2524 18.7716 29.3391V30.6601ZM18.7716 26.6971C18.7717 26.7838 18.7546 26.8697 18.7215 26.9499C18.6883 27.0301 18.6396 27.1029 18.5783 27.1642C18.517 27.2256 18.4441 27.2742 18.364 27.3074C18.2838 27.3406 18.1979 27.3576 18.1111 27.3576C18.0244 27.3576 17.9385 27.3406 17.8583 27.3074C17.7781 27.2742 17.7053 27.2256 17.644 27.1642C17.5826 27.1029 17.534 27.0301 17.5008 26.9499C17.4676 26.8697 17.4506 26.7838 17.4506 26.6971V25.376C17.4506 25.2893 17.4676 25.2034 17.5008 25.1232C17.534 25.0431 17.5826 24.9702 17.644 24.9089C17.7053 24.8475 17.7781 24.7989 17.8583 24.7657C17.9385 24.7325 18.0244 24.7155 18.1111 24.7155C18.1979 24.7155 18.2838 24.7325 18.364 24.7657C18.4441 24.7989 18.517 24.8475 18.5783 24.9089C18.6396 24.9702 18.6883 25.0431 18.7215 25.1232C18.7546 25.2034 18.7717 25.2893 18.7716 25.376V26.6971ZM18.7716 22.7339C18.7717 22.8207 18.7546 22.9066 18.7215 22.9868C18.6883 23.0669 18.6396 23.1398 18.5783 23.2011C18.517 23.2624 18.4441 23.3111 18.364 23.3443C18.2838 23.3774 18.1979 23.3945 18.1111 23.3944C18.0244 23.3945 17.9385 23.3774 17.8583 23.3443C17.7781 23.3111 17.7053 23.2624 17.644 23.2011C17.5826 23.1398 17.534 23.0669 17.5008 22.9868C17.4676 22.9066 17.4506 22.8207 17.4506 22.7339V21.4129C17.4506 21.3262 17.4676 21.2402 17.5008 21.1601C17.534 21.0799 17.5826 21.0071 17.644 20.9457C17.7053 20.8844 17.7781 20.8357 17.8583 20.8026C17.9385 20.7694 18.0244 20.7523 18.1111 20.7524C18.1979 20.7523 18.2838 20.7694 18.364 20.8026C18.4441 20.8357 18.517 20.8844 18.5783 20.9457C18.6396 21.0071 18.6883 21.0799 18.7215 21.1601C18.7546 21.2402 18.7717 21.3262 18.7716 21.4129V22.7339Z" stroke="#F5AAB3" stroke-linejoin="round" mask="url(#path-3-outside-1_159_2944)"/>
    <path d="M48.495 40.5677H20.7533C20.5781 40.5677 20.4101 40.4981 20.2862 40.3742C20.1624 40.2503 20.0928 40.0823 20.0928 39.9071V20.0917C20.0928 19.9165 20.1624 19.7485 20.2862 19.6246C20.4101 19.5007 20.5781 19.4312 20.7533 19.4312H48.495C48.6702 19.4312 48.8382 19.5007 48.962 19.6246C49.0859 19.7485 49.1555 19.9165 49.1555 20.0917V39.9071C49.1555 40.0823 49.0859 40.2503 48.962 40.3742C48.8382 40.4981 48.6702 40.5677 48.495 40.5677Z" fill="#F33C52"/>
    <path d="M34.077 34.5642L30.6533 36.7135C29.8988 37.1872 28.952 36.4994 29.1693 35.6354L30.1555 31.7151L27.0534 29.1232C26.3697 28.5519 26.7314 27.4389 27.6202 27.3787L31.6534 27.1052L33.1598 23.3539C33.4918 22.5272 34.6622 22.5272 34.9942 23.3539L36.5006 27.1052L40.5337 27.3787C41.4226 27.439 41.7843 28.552 41.1006 29.1232L37.9985 31.7151L38.9847 35.6354C39.202 36.4994 38.2552 37.1873 37.5006 36.7135L34.077 34.5642Z" fill="#FFB9C1"/>
    <path d="M38.555 33.9275C34.2749 33.6658 30.6462 31.0164 28.9881 27.2856L27.6202 27.3783C26.7314 27.4387 26.3697 28.5517 27.0534 29.1229L30.1555 31.7148L29.1692 35.635C28.9519 36.499 29.8987 37.1869 30.6533 36.7132L34.0769 34.5639L37.5005 36.7132C38.255 37.1869 39.2018 36.499 38.9844 35.635L38.555 33.9275Z" fill="#FFA6B0"/>
</svg>
