<svg width="57" height="56" viewBox="0 0 57 56" fill="none" xmlns="http://www.w3.org/2000/svg">
    <g clip-path="url(#clip0_8_4044)">
        <path d="M53 47.25H4C2.068 47.25 0.5 45.682 0.5 43.75V12.25C0.5 10.318 2.068 8.75 4 8.75H53C54.932 8.75 56.5 10.318 56.5 12.25V43.75C56.5 45.682 54.932 47.25 53 47.25Z" fill="#ED1B34"/>
        <path d="M53 47.25H4C2.0365 47.25 0.5 45.7135 0.5 43.75C0.500157 43.4754 0.564857 43.2047 0.688881 42.9596C0.812906 42.7146 0.992783 42.5022 1.214 42.3395L27.464 24.8395C27.772 24.612 28.136 24.5 28.5 24.5C28.864 24.5 29.228 24.612 29.536 24.8395L55.786 42.3395C56.0072 42.5022 56.1871 42.7146 56.3111 42.9596C56.4351 43.2047 56.4998 43.4754 56.5 43.75C56.5 45.7135 54.9635 47.25 53 47.25Z" fill="#F33C52"/>
        <path d="M53 8.75H4C2.0365 8.75 0.5 10.2865 0.5 12.25C0.500157 12.5246 0.564857 12.7953 0.688881 13.0404C0.812906 13.2854 0.992783 13.4978 1.214 13.6605L27.478 32.515C28.087 32.9525 28.9095 32.9525 29.5185 32.515L55.7825 13.6605C56.0047 13.4985 56.1855 13.2863 56.3102 13.0412C56.4349 12.7961 56.4999 12.525 56.5 12.25C56.5 10.2865 54.9635 8.75 53 8.75Z" fill="#FB6779"/>
        <rect x="21" width="16" height="16" rx="8" fill="#3CB85E"/>
        <path d="M25.2666 8.2667L27.7557 10.6667L32.7333 5.8667" stroke="white" stroke-width="2" stroke-linecap="round" stroke-linejoin="round"/>
    </g>
    <defs>
        <clipPath id="clip0_8_4044">
            <rect width="56" height="56" fill="white" transform="translate(0.5)"/>
        </clipPath>
    </defs>
</svg>
