<svg width="40" height="40" viewBox="0 0 40 40" fill="none" xmlns="http://www.w3.org/2000/svg">
    <g clip-path="url(#clip0_401_1243)">
        <path d="M37.5005 33.75H2.50049C1.12049 33.75 0.000488281 32.63 0.000488281 31.25V8.75C0.000488281 7.37 1.12049 6.25 2.50049 6.25H37.5005C38.8805 6.25 40.0005 7.37 40.0005 8.75V31.25C40.0005 32.63 38.8805 33.75 37.5005 33.75Z" fill="#2F8B9B"/>
        <path d="M37.5005 33.75H2.50049C1.09799 33.75 0.000488281 32.6525 0.000488281 31.25C0.000600073 31.0538 0.0468146 30.8605 0.135404 30.6855C0.223993 30.5105 0.352476 30.3587 0.510488 30.2425L19.2605 17.7425C19.4805 17.58 19.7405 17.5 20.0005 17.5C20.2605 17.5 20.5205 17.58 20.7405 17.7425L39.4905 30.2425C39.6485 30.3587 39.777 30.5105 39.8656 30.6855C39.9542 30.8605 40.0004 31.0538 40.0005 31.25C40.0005 32.6525 38.903 33.75 37.5005 33.75Z" fill="#237685"/>
        <path d="M37.5005 6.25H2.50049C1.09799 6.25 0.000488281 7.3475 0.000488281 8.75C0.000600073 8.94615 0.0468146 9.13953 0.135404 9.31454C0.223993 9.48954 0.352476 9.64128 0.510488 9.7575L19.2705 23.225C19.7055 23.5375 20.293 23.5375 20.728 23.225L39.488 9.7575C39.6467 9.64179 39.7759 9.49023 39.8649 9.31515C39.954 9.14007 40.0004 8.94643 40.0005 8.75C40.0005 7.3475 38.903 6.25 37.5005 6.25Z" fill="#44ACBE"/>
    </g>
    <defs>
        <clipPath id="clip0_401_1243">
            <rect width="40" height="40" fill="white" transform="translate(0.000488281)"/>
        </clipPath>
    </defs>
</svg>
