<svg width="57" height="57" viewBox="0 0 57 57" fill="none" xmlns="http://www.w3.org/2000/svg">
    <g clip-path="url(#clip0_63_1644)">
        <path d="M53 47.5H4C2.068 47.5 0.5 45.932 0.5 44V12.5C0.5 10.568 2.068 9 4 9H53C54.932 9 56.5 10.568 56.5 12.5V44C56.5 45.932 54.932 47.5 53 47.5Z" fill="#2F8B9B"/>
        <path d="M53 47.5H4C2.0365 47.5 0.5 45.9635 0.5 44C0.500157 43.7254 0.564857 43.4547 0.688881 43.2096C0.812906 42.9646 0.992783 42.7522 1.214 42.5895L27.464 25.0895C27.772 24.862 28.136 24.75 28.5 24.75C28.864 24.75 29.228 24.862 29.536 25.0895L55.786 42.5895C56.0072 42.7522 56.1871 42.9646 56.3111 43.2096C56.4351 43.4547 56.4998 43.7254 56.5 44C56.5 45.9635 54.9635 47.5 53 47.5Z" fill="#237685"/>
        <path d="M53 9H4C2.0365 9 0.5 10.5365 0.5 12.5C0.500157 12.7746 0.564857 13.0453 0.688881 13.2904C0.812906 13.5354 0.992783 13.7478 1.214 13.9105L27.478 32.765C28.087 33.2025 28.9095 33.2025 29.5185 32.765L55.7825 13.9105C56.0047 13.7485 56.1855 13.5363 56.3102 13.2912C56.4349 13.0461 56.4999 12.775 56.5 12.5C56.5 10.5365 54.9635 9 53 9Z" fill="#44ACBE"/>
        <rect x="20.5" y="1" width="17" height="17" rx="8.5" fill="#3CB85E"/>
        <path d="M25.2656 8.2667L27.7547 10.6667L32.7323 5.8667" stroke="white" stroke-width="2" stroke-linecap="round" stroke-linejoin="round" />
        <rect x="20.5" y="1" width="17" height="17" rx="8.5" stroke="white"/>
    </g>
    <defs>
        <clipPath id="clip0_63_1644">
            <rect width="56" height="56" fill="white" transform="translate(0.5)"/>
        </clipPath>
    </defs>
</svg>
