<svg width="40" height="40" viewBox="0 0 40 40" fill="none" xmlns="http://www.w3.org/2000/svg">
    <g clip-path="url(#clip0_401_1827)">
        <path d="M20.0005 4.6875C20.6481 4.6875 21.1724 4.16328 21.1724 3.51562V1.17187C21.1724 0.524219 20.6481 0 20.0005 0C19.3528 0 18.8286 0.524219 18.8286 1.17187V3.51562C18.8286 4.16328 19.3528 4.6875 20.0005 4.6875ZM25.5165 6.68789L27.8603 4.34414C28.3181 3.88641 28.3181 3.14484 27.8603 2.68711C27.4024 2.22937 26.661 2.2293 26.2032 2.68711L23.8595 5.03086C23.4017 5.48859 23.4017 6.23016 23.8595 6.68789C24.3173 7.14562 25.0588 7.1457 25.5165 6.68789ZM14.4845 6.68789C14.9422 7.1457 15.6838 7.1457 16.1415 6.68789C16.5992 6.23008 16.5993 5.48859 16.1415 5.03086L13.7978 2.68711C13.34 2.2293 12.5985 2.2293 12.1407 2.68711C11.683 3.14492 11.6829 3.88641 12.1407 4.34414L14.4845 6.68789ZM10.5474 16.5625C10.5474 13.9773 8.44502 11.875 5.85986 11.875C3.27471 11.875 1.17236 13.9773 1.17236 16.5625C1.17236 19.1477 3.27471 21.25 5.85986 21.25C8.44502 21.25 10.5474 19.1477 10.5474 16.5625Z" fill="#44ACBE"/>
        <path d="M20.0005 9.45312C18.062 9.45312 16.4849 11.0303 16.4849 12.9687C16.4849 17.4914 12.7263 21.25 8.20361 21.25H5.85986C2.62924 21.25 0.000488281 23.8787 0.000488281 27.1094V38.8281C0.000488281 39.4758 0.524707 40 1.17236 40H10.5474C11.194 40 11.7036 39.4758 11.7036 38.8294L11.7104 27.8705C18.5539 26.258 23.5161 20.0961 23.5161 12.9687C23.5161 11.0302 21.9389 9.45312 20.0005 9.45312ZM38.8286 16.5625C38.8286 13.9773 36.7263 11.875 34.1411 11.875C31.556 11.875 29.4536 13.9773 29.4536 16.5625C29.4536 19.1477 31.556 21.25 34.1411 21.25C36.7263 21.25 38.8286 19.1477 38.8286 16.5625Z" fill="#2F8B9B"/>
        <path d="M34.1413 21.2501H31.7975C29.1028 21.2501 26.6499 19.8484 25.1535 17.8354C24.4678 20.2549 23.2734 22.4506 21.6782 24.3308C23.5468 25.9803 25.8557 27.2895 28.2904 27.8694L28.2974 38.8294C28.2975 39.4758 28.8071 40.0001 29.4538 40.0001H38.8288C39.4764 40.0001 40.0006 39.4758 40.0006 38.8282V27.1094C40.0006 23.8788 37.3719 21.2501 34.1413 21.2501Z" fill="#237685"/>
    </g>
    <defs>
        <clipPath id="clip0_401_1827">
            <rect width="40" height="40" fill="white" transform="translate(0.000488281)"/>
        </clipPath>
    </defs>
</svg>
