<svg width="14" height="14" viewBox="0 0 14 14" fill="none" xmlns="http://www.w3.org/2000/svg">
    <path fill-rule="evenodd" clip-rule="evenodd" d="M10.8285 2.9165H11.667C12.3113 2.9165 12.8337 3.43884 12.8337 4.08317V4.6665C12.8337 5.31084 12.3113 5.83317 11.667 5.83317H2.33366C1.68933 5.83317 1.16699 5.31084 1.16699 4.6665V4.08317C1.16699 3.43884 1.68933 2.9165 2.33366 2.9165H3.17218C3.10158 2.73571 3.06283 2.53897 3.06283 2.33317C3.06283 1.44721 3.78104 0.729004 4.66699 0.729004C5.64668 0.729004 6.50762 1.23745 7.00032 2.00486C7.49303 1.23745 8.35397 0.729004 9.33366 0.729004C10.2196 0.729004 10.9378 1.44721 10.9378 2.33317C10.9378 2.53897 10.8991 2.73571 10.8285 2.9165ZM4.22942 2.9165H6.47139C6.22535 2.15489 5.5105 1.604 4.66699 1.604C4.26428 1.604 3.93783 1.93046 3.93783 2.33317C3.93783 2.5717 4.05235 2.78347 4.22942 2.9165ZM9.77123 2.9165C9.9483 2.78347 10.0628 2.5717 10.0628 2.33317C10.0628 1.93046 9.73637 1.604 9.33366 1.604C8.49015 1.604 7.7753 2.15489 7.52926 2.9165H9.77123ZM11.667 6.70817H2.33366V11.6665C2.33366 12.3108 2.85599 12.8332 3.50033 12.8332H10.5003C11.1447 12.8332 11.667 12.3108 11.667 11.6665V6.70817Z" fill="white"/>
</svg>
