<svg width="44" height="44" viewBox="0 0 44 44" fill="none" xmlns="http://www.w3.org/2000/svg">
    <circle opacity="0.1" cx="22" cy="22" r="22" fill="white"/>
    <g clip-path="url(#clip0_340_2054)">
        <path d="M22 12.0469C22.421 12.0469 22.7617 11.7061 22.7617 11.2852V9.76172C22.7617 9.34074 22.421 9 22 9C21.579 9 21.2383 9.34074 21.2383 9.76172V11.2852C21.2383 11.7061 21.579 12.0469 22 12.0469ZM25.5854 13.3471L27.1088 11.8237C27.4064 11.5262 27.4064 11.0441 27.1088 10.7466C26.8113 10.4491 26.3293 10.449 26.0318 10.7466L24.5083 12.2701C24.2108 12.5676 24.2108 13.0496 24.5083 13.3471C24.8059 13.6447 25.2879 13.6447 25.5854 13.3471ZM18.4146 13.3471C18.7121 13.6447 19.1941 13.6447 19.4917 13.3471C19.7892 13.0496 19.7892 12.5676 19.4917 12.2701L17.9682 10.7466C17.6707 10.449 17.1887 10.449 16.8912 10.7466C16.5936 11.0442 16.5936 11.5262 16.8912 11.8237L18.4146 13.3471ZM15.8555 19.7656C15.8555 18.0853 14.4889 16.7188 12.8086 16.7188C11.1282 16.7188 9.76172 18.0853 9.76172 19.7656C9.76172 21.446 11.1282 22.8125 12.8086 22.8125C14.4889 22.8125 15.8555 21.446 15.8555 19.7656Z" fill="white"/>
        <path d="M22 15.1445C20.74 15.1445 19.7148 16.1697 19.7148 17.4297C19.7148 20.3694 17.2718 22.8125 14.332 22.8125H12.8086C10.7087 22.8125 9 24.5212 9 26.6211V34.2383C9 34.6593 9.34074 35 9.76172 35H15.8555C16.2758 35 16.607 34.6593 16.607 34.2391L16.6114 27.1158C21.0597 26.0677 24.2852 22.0625 24.2852 17.4297C24.2852 16.1697 23.26 15.1445 22 15.1445ZM34.2383 19.7656C34.2383 18.0853 32.8718 16.7188 31.1914 16.7188C29.5111 16.7188 28.1445 18.0853 28.1445 19.7656C28.1445 21.446 29.5111 22.8125 31.1914 22.8125C32.8718 22.8125 34.2383 21.446 34.2383 19.7656Z" fill="white"/>
        <path d="M31.1918 22.8123H29.6684C27.9168 22.8123 26.3224 21.9012 25.3498 20.5928C24.9041 22.1654 24.1277 23.5926 23.0908 24.8147C24.3054 25.8869 25.8062 26.7379 27.3887 27.1148L27.3933 34.2389C27.3934 34.659 27.7246 34.9998 28.1449 34.9998H34.2387C34.6597 34.9998 35.0004 34.659 35.0004 34.2381V26.6209C35.0004 24.521 33.2917 22.8123 31.1918 22.8123Z" fill="white"/>
    </g>
    <defs>
        <clipPath id="clip0_340_2054">
            <rect width="26" height="26" fill="white" transform="translate(9 9)"/>
        </clipPath>
    </defs>
</svg>
