<svg width="14" height="14" viewBox="0 0 14 14" fill="none" xmlns="http://www.w3.org/2000/svg">
    <g clip-path="url(#clip0_340_5421)">
        <path d="M8.70785 5.2915C8.41495 4.99862 7.94008 4.99863 7.64719 5.29153C7.35431 5.58443 7.35432 6.05931 7.64722 6.35219L8.70785 5.2915ZM8.17754 9.35607L7.64722 8.82573L7.64721 8.82574L8.17754 9.35607ZM5.82087 11.7127L6.3512 12.2431L5.82087 11.7127ZM2.28665 8.17851L2.81698 8.70885L2.81698 8.70884L2.28665 8.17851ZM3.99531 7.53051C4.28821 7.23762 4.28821 6.76274 3.99531 6.46985C3.70242 6.17696 3.22755 6.17696 2.93465 6.46985L3.99531 7.53051ZM5.29152 8.70886C5.58442 9.00174 6.0593 9.00173 6.35218 8.70883C6.64507 8.41593 6.64505 7.94105 6.35215 7.64817L5.29152 8.70886ZM5.82184 4.64429L6.35215 5.17464L6.35217 5.17462L5.82184 4.64429ZM8.1785 2.28763L8.70883 2.81796L8.1785 2.28763ZM11.7127 2.28763L11.1824 2.81796V2.81796L11.7127 2.28763ZM11.7127 5.82185L12.2431 6.35218L11.7127 5.82185ZM10.0041 6.46985C9.71117 6.76274 9.71117 7.23762 10.0041 7.53051C10.297 7.8234 10.7718 7.8234 11.0647 7.53051L10.0041 6.46985ZM7.64722 6.35219C7.97525 6.6802 8.15953 7.12508 8.15953 7.58896H9.65953C9.65953 6.72724 9.3172 5.90081 8.70785 5.2915L7.64722 6.35219ZM8.15953 7.58896C8.15953 8.05284 7.97525 8.49772 7.64722 8.82573L8.70785 9.88642C9.3172 9.2771 9.65953 8.45068 9.65953 7.58896H8.15953ZM7.64721 8.82574L5.29054 11.1824L6.3512 12.2431L8.70787 9.8864L7.64721 8.82574ZM5.29054 11.1824C4.60749 11.8655 3.50003 11.8655 2.81698 11.1824L1.75632 12.2431C3.02516 13.5119 5.08236 13.5119 6.3512 12.2431L5.29054 11.1824ZM2.81698 11.1824C2.13392 10.4994 2.13392 9.3919 2.81698 8.70885L1.75632 7.64818C0.487477 8.91703 0.487477 10.9742 1.75632 12.2431L2.81698 11.1824ZM2.81698 8.70884L3.99531 7.53051L2.93465 6.46985L1.75632 7.64818L2.81698 8.70884ZM6.35215 7.64817C6.02413 7.32017 5.83984 6.87529 5.83984 6.4114H4.33984C4.33984 7.27312 4.68217 8.09955 5.29152 8.70886L6.35215 7.64817ZM5.83984 6.4114C5.83984 5.94752 6.02413 5.50264 6.35215 5.17464L5.29152 4.11395C4.68217 4.72326 4.33984 5.54968 4.33984 6.4114H5.83984ZM6.35217 5.17462L8.70883 2.81796L7.64817 1.7573L5.29151 4.11396L6.35217 5.17462ZM8.70883 2.81796C9.39189 2.1349 10.4993 2.1349 11.1824 2.81796L12.2431 1.7573C10.9742 0.488454 8.91701 0.488454 7.64817 1.7573L8.70883 2.81796ZM11.1824 2.81796C11.8654 3.50101 11.8654 4.60846 11.1824 5.29152L12.2431 6.35218C13.5119 5.08334 13.5119 3.02614 12.2431 1.7573L11.1824 2.81796ZM11.1824 5.29152L10.0041 6.46985L11.0647 7.53051L12.2431 6.35218L11.1824 5.29152Z" fill="#ED1B34"/>
    </g>
    <defs>
        <clipPath id="clip0_340_5421">
            <rect width="14" height="14" fill="white"/>
        </clipPath>
    </defs>
</svg>
