<svg width="44" height="44" viewBox="0 0 44 44" fill="none" xmlns="http://www.w3.org/2000/svg">
    <circle opacity="0.1" cx="22" cy="22" r="22" fill="white"/>
    <g clip-path="url(#clip0_340_2075)">
        <path d="M20.8806 23.1056H14.3855C13.8708 23.1056 13.4497 23.5266 13.4497 24.0413V31.0644C13.4497 31.579 13.8708 32.0001 14.3855 32.0001H20.9898C21.2099 32.0001 21.2099 31.7636 21.2099 31.7636V23.4235C21.2098 23.4235 21.2098 23.1056 20.8806 23.1056ZM29.6147 23.1056H23.1262C22.731 23.1056 22.7902 23.5171 22.7902 23.5171V31.7712C22.7902 31.7712 22.787 31.9999 23.0247 31.9999H29.6146C30.1292 31.9999 30.5503 31.5788 30.5503 31.0642V24.0413C30.5504 23.5266 30.1293 23.1056 29.6147 23.1056ZM21.2098 17.5797C21.2098 17.5797 21.2098 17.2626 20.8965 17.2626H13.3288C12.8142 17.2626 12.3931 17.6837 12.3931 18.1983V21.1191C12.3931 21.6337 12.8142 22.0548 13.3288 22.0548H20.9221C21.2098 22.0548 21.2098 21.8053 21.2098 21.8053V17.5797ZM30.6713 17.2626H23.0795C22.7903 17.2626 22.7903 17.5381 22.7903 17.5381V21.8111C22.7903 21.8111 22.7903 22.0548 23.1418 22.0548H30.6713C31.1859 22.0548 31.607 21.6337 31.607 21.1191V18.1983C31.607 17.6837 31.1859 17.2626 30.6713 17.2626ZM18.0272 16.5703C17.5991 16.5703 17.208 16.5363 16.8651 16.4693C15.9941 16.2992 15.3955 15.968 15.035 15.457C14.712 14.999 14.6132 14.4344 14.7411 13.7788C14.9653 12.6317 15.7356 12 16.9101 12C17.1587 12 17.4316 12.0287 17.7215 12.0854C18.4589 12.2294 19.402 12.6522 20.2444 13.2163C21.6736 14.1735 21.7443 14.7686 21.6731 15.133C21.5685 15.6684 21.068 16.051 20.1431 16.3027C19.5183 16.4727 18.747 16.5703 18.0272 16.5703ZM16.9102 13.4997C16.4553 13.4997 16.299 13.6268 16.2132 14.0663C16.143 14.4256 16.2315 14.5512 16.2606 14.5924C16.3822 14.7649 16.699 14.9087 17.1527 14.9973C17.3975 15.0451 17.7 15.0704 18.0271 15.0704C18.7465 15.0704 19.3803 14.9614 19.8009 14.8422C19.8315 14.8335 19.879 14.7973 19.8281 14.767C19.2783 14.3191 18.2724 13.721 17.434 13.5572C17.2386 13.5192 17.0623 13.4997 16.9102 13.4997ZM25.9946 16.5703H25.9945C25.2746 16.5703 24.5035 16.4727 23.8786 16.3027C22.9536 16.0511 22.4532 15.6684 22.3486 15.1331C22.2775 14.7687 22.348 14.1736 23.7774 13.2164C24.6197 12.6523 25.5628 12.2295 26.3003 12.0854C26.5901 12.0288 26.8631 12.0001 27.1115 12.0001C28.2862 12.0001 29.0565 12.6318 29.2804 13.7789C29.4085 14.4344 29.3098 14.999 28.9867 15.457C28.6262 15.9681 28.0276 16.2992 27.1565 16.4694C26.8137 16.5363 26.4226 16.5703 25.9946 16.5703ZM24.2056 14.7577C24.1569 14.786 24.1804 14.8307 24.2057 14.838C24.6261 14.9588 25.2666 15.0705 25.9945 15.0705C26.3218 15.0705 26.6241 15.0452 26.869 14.9973C27.3226 14.9087 27.6395 14.7649 27.7611 14.5925C27.7903 14.5512 27.8789 14.4257 27.8085 14.0664C27.7227 13.6269 27.5663 13.4998 27.1114 13.4998C26.9593 13.4998 26.7831 13.5192 26.5877 13.5573C25.7492 13.7211 24.7554 14.3098 24.2056 14.7577Z" fill="white"/>
    </g>
    <defs>
        <clipPath id="clip0_340_2075">
            <rect width="20" height="20" fill="white" transform="translate(12 12)"/>
        </clipPath>
    </defs>
</svg>
