<svg width="14" height="14" viewBox="0 0 14 14" fill="none" xmlns="http://www.w3.org/2000/svg">
    <path fill-rule="evenodd" clip-rule="evenodd" d="M13.3635 6.99987C13.3635 10.5144 10.5144 13.3635 6.99987 13.3635C3.48533 13.3635 0.63623 10.5144 0.63623 6.99987C0.63623 3.48533 3.48533 0.63623 6.99987 0.63623C10.5144 0.63623 13.3635 3.48533 13.3635 6.99987ZM6.3635 10.1817C6.3635 9.83023 6.64841 9.54532 6.99987 9.54532C7.35132 9.54532 7.63623 9.83023 7.63623 10.1817C7.63623 10.5331 7.35132 10.818 6.99987 10.818C6.64841 10.818 6.3635 10.5331 6.3635 10.1817ZM6.52259 8.27259C6.52259 8.53618 6.73628 8.74987 6.99987 8.74987C7.26346 8.74987 7.47714 8.53618 7.47714 8.27259L7.47714 3.81805C7.47714 3.55446 7.26346 3.34078 6.99987 3.34078C6.73628 3.34078 6.52259 3.55446 6.52259 3.81805L6.52259 8.27259Z" fill="currentColor"/>
</svg>
