<svg width="33" height="32" viewBox="0 0 33 32" fill="none" xmlns="http://www.w3.org/2000/svg">
    <path fill-rule="evenodd" clip-rule="evenodd" d="M0.5 15.3568C0.5 8.1204 0.5 4.50321 2.7516 2.2516C5.00321 0 8.6204 0 15.8568 0H17.1432C24.3796 0 27.9968 0 30.2484 2.2516C32.5 4.50321 32.5 8.1204 32.5 15.3568V16.6432C32.5 23.8796 32.5 27.4968 30.2484 29.7484C27.9968 32 24.3796 32 17.1432 32H15.8568C8.6204 32 5.00321 32 2.7516 29.7484C0.5 27.4968 0.5 23.8776 0.5 16.6432V15.3568Z" fill="#FF7700"/>
    <path fill-rule="evenodd" clip-rule="evenodd" d="M20.3317 14.2212C19.3492 15.2027 17.9985 15.8124 16.5013 15.8124C15.0042 15.8124 13.6514 15.2007 12.671 14.2212C11.6885 13.2397 11.0782 11.8904 11.0782 10.3947C11.0782 8.89907 11.6905 7.5477 12.671 6.56821C13.6535 5.58669 15.0042 4.97705 16.5013 4.97705C17.9985 4.97705 19.3512 5.58872 20.3317 6.56821C21.3142 7.54973 21.9245 8.89907 21.9245 10.3947C21.9245 11.8904 21.3122 13.2417 20.3317 14.2212ZM16.5013 7.91755C15.826 7.91755 15.2137 8.19189 14.7621 8.64099C14.3105 9.09212 14.0379 9.70176 14.0379 10.3785C14.0379 11.0552 14.3126 11.6648 14.7621 12.1159C15.2117 12.5671 15.8239 12.8394 16.5013 12.8394C17.1787 12.8394 17.789 12.565 18.2406 12.1159C18.6921 11.6648 18.9647 11.0552 18.9647 10.3785C18.9647 9.70176 18.6901 9.09212 18.2406 8.64099C17.789 8.20611 17.1787 7.91755 16.5013 7.91755ZM22.1991 15.8286C22.1177 15.7006 21.9407 15.6844 21.8126 15.7799C20.2991 17.0662 18.4643 17.8872 16.4851 17.8872C14.5058 17.8872 12.6547 17.052 11.1575 15.7799C11.0457 15.6844 10.885 15.6986 10.7873 15.8286L9.19455 17.999C9.11319 18.0945 9.14573 18.257 9.24337 18.3363C10.5961 19.4296 12.14 20.153 13.7654 20.5391L10.6917 26.4404C10.6103 26.601 10.7243 26.8103 10.9175 26.8103H14.2007C14.3126 26.8103 14.4102 26.7453 14.4427 26.6497L16.5034 21.7767L18.5477 26.664C18.5965 26.7595 18.6921 26.8245 18.7898 26.8245H22.073C22.2662 26.8245 22.3781 26.6315 22.2987 26.4547L19.2251 20.5371C20.8504 20.151 22.4127 19.4275 23.7471 18.3343C23.859 18.253 23.8752 18.1087 23.7959 17.9969L22.2031 15.8266L22.1991 15.8286Z" fill="white"/>
</svg>
