<svg width="33" height="32" viewBox="0 0 33 32" fill="none" xmlns="http://www.w3.org/2000/svg">
    <path d="M15.8333 32H17.1667C24.42 32 28.0333 32 30.2733 29.76C32.5 27.52 32.5 23.8933 32.5 16.6667V15.3067C32.5 8.10667 32.5 4.48 30.2733 2.24C28.0333 0 24.4067 0 17.1667 0H15.8333C8.58 0 4.96667 0 2.72667 2.24C0.5 4.48 0.5 8.10667 0.5 15.3333V16.6933C0.5 23.8933 0.5 27.52 2.74 29.76C4.98 32 8.60667 32 15.8333 32Z" fill="#0077FF"/>
    <path d="M17.5271 23.0534C10.2337 23.0534 6.07372 18.0534 5.90039 9.7334H9.55372C9.67372 15.8401 12.3671 18.4267 14.5004 18.9601V9.7334H17.9404V15.0001C20.0471 14.7734 22.2604 12.3734 23.0071 9.7334H26.4471C26.1657 11.1026 25.6048 12.399 24.7996 13.5415C23.9943 14.684 22.9619 15.6481 21.7671 16.3734C23.1008 17.0361 24.2789 17.9742 25.2235 19.1257C26.1681 20.2771 26.8578 21.6158 27.2471 23.0534H23.4604C23.111 21.8048 22.4008 20.687 21.4188 19.8403C20.4369 18.9935 19.2268 18.4554 17.9404 18.2934V23.0534H17.5271Z" fill="white"/>
</svg>
