<svg width="33" height="32" viewBox="0 0 33 32" fill="none" xmlns="http://www.w3.org/2000/svg">
    <path d="M15.8333 32H17.1667C24.42 32 28.0333 32 30.2733 29.76C32.5 27.52 32.5 23.8933 32.5 16.6667V15.3067C32.5 8.10667 32.5 4.48 30.2733 2.24C28.0333 0 24.4067 0 17.1667 0H15.8333C8.58 0 4.96667 0 2.72667 2.24C0.5 4.48 0.5 8.10667 0.5 15.3333V16.6933C0.5 23.8933 0.5 27.52 2.74 29.76C4.98 32 8.60667 32 15.8333 32Z" fill="#1D9BF0"/>
    <g clip-path="url(#clip0_178_5668)">
        <path d="M23.8341 13.2024C23.8442 13.3533 23.8442 13.5043 23.8442 13.6566C23.8442 18.2984 20.3986 23.6518 14.0982 23.6518V23.649C12.237 23.6518 10.4145 23.1051 8.84766 22.0742C9.11829 22.1076 9.39027 22.1243 9.66294 22.125C11.2053 22.1263 12.7036 21.5956 13.9171 20.6183C12.4513 20.5897 11.166 19.6096 10.717 18.1788C11.2304 18.2803 11.7595 18.2595 12.2634 18.1182C10.6654 17.7871 9.51575 16.3472 9.51575 14.675C9.51575 14.6597 9.51575 14.6451 9.51575 14.6305C9.9919 14.9025 10.525 15.0534 11.0704 15.0701C9.56527 14.0385 9.10133 11.9851 10.0102 10.3796C11.7493 12.5743 14.3152 13.9084 17.0697 14.0496C16.7936 12.8295 17.1707 11.551 18.0606 10.6933C19.4402 9.36332 21.61 9.43149 22.9069 10.8457C23.674 10.6905 24.4092 10.4019 25.0821 9.99285C24.8264 10.806 24.2912 11.4968 23.5763 11.9357C24.2553 11.8536 24.9186 11.6672 25.5433 11.3827C25.0834 12.0894 24.5042 12.705 23.8341 13.2024Z" fill="white"/>
    </g>
    <defs>
        <clipPath id="clip0_178_5668">
            <rect width="16.6957" height="16.6957" fill="white" transform="translate(8.84766 8.34766)"/>
        </clipPath>
    </defs>
</svg>
