<svg width="33" height="32" viewBox="0 0 33 32" fill="none" xmlns="http://www.w3.org/2000/svg">
    <path fill-rule="evenodd" clip-rule="evenodd" d="M0.5 15.3568C0.5 8.1204 0.5 4.50321 2.7516 2.2516C5.00321 0 8.6204 0 15.8568 0H17.1432C24.3796 0 27.9968 0 30.2484 2.2516C32.5 4.50321 32.5 8.1204 32.5 15.3568V16.6432C32.5 23.8796 32.5 27.4968 30.2484 29.7484C27.9968 32 24.3796 32 17.1432 32H15.8568C8.6204 32 5.00321 32 2.7516 29.7484C0.5 27.4968 0.5 23.8776 0.5 16.6432V15.3568Z" fill="#2AABEE"/>
    <path fill-rule="evenodd" clip-rule="evenodd" d="M8.60477 15.7287C13.0865 13.7653 16.075 12.4709 17.5703 11.8455C21.8397 10.0598 22.7268 9.74961 23.305 9.73937C23.4322 9.73711 23.7166 9.76881 23.9008 9.9191C24.0563 10.046 24.0991 10.2174 24.1196 10.3377C24.14 10.4581 24.1655 10.7321 24.1453 10.9463C23.9139 13.3907 22.9128 19.3227 22.4035 22.0605C22.188 23.219 21.7637 23.6074 21.3529 23.6454C20.4601 23.728 19.7822 23.0521 18.9175 22.4822C17.5644 21.5903 16.8 21.0351 15.4866 20.1648C13.9688 19.159 14.9527 18.6062 15.8178 17.7027C16.0441 17.4663 19.9777 13.8685 20.0538 13.5422C20.0634 13.5013 20.0722 13.3492 19.9823 13.2689C19.8924 13.1885 19.7597 13.216 19.664 13.2378C19.5283 13.2688 17.3667 14.7055 13.1794 17.5478C12.5658 17.9714 12.0101 18.1778 11.5122 18.167C10.9632 18.1551 9.90735 17.8549 9.1224 17.5983C8.15963 17.2836 7.39445 17.1173 7.46108 16.5828C7.49578 16.3044 7.87701 16.0197 8.60477 15.7287Z" fill="white"/>
</svg>
