<svg width="44" height="44" viewBox="0 0 44 44" fill="none" xmlns="http://www.w3.org/2000/svg">
    <circle opacity="0.1" cx="22" cy="22" r="22" fill="#2F8B9B"/>
    <path d="M15.5952 25.0649L14.5791 30.99C14.4855 31.5338 14.7093 32.0832 15.1553 32.4074C15.4077 32.5908 15.7065 32.6844 16.0072 32.6844C16.2378 32.6844 16.469 32.6293 16.6811 32.5176L22.0015 29.7201L27.3219 32.5176C27.5354 32.6296 27.7656 32.684 28.0003 32.6844C28.7994 32.6829 29.4469 32.0345 29.4469 31.2353C29.4469 31.1239 29.4344 31.0156 29.4106 30.9111L28.4081 25.0649L32.7124 20.8685C33.1071 20.4836 33.2493 19.9077 33.0788 19.3828C32.9086 18.8583 32.4551 18.476 31.9095 18.3967L25.9609 17.5322L23.3005 12.1411C23.0564 11.6467 22.5531 11.3335 22.0015 11.3335C21.4499 11.3335 20.9461 11.6467 20.702 12.1411L18.042 17.5322L12.0938 18.3967C11.5482 18.476 11.0947 18.8583 10.9245 19.3828C10.754 19.9077 10.8962 20.4836 11.2909 20.8685L15.5952 25.0649Z" fill="#2F8B9B"/>
</svg>
