<svg width="44" height="44" viewBox="0 0 44 44" fill="none" xmlns="http://www.w3.org/2000/svg">
    <circle opacity="0.1" cx="22" cy="22" r="22" fill="white"/>
    <path d="M15.595 25.0649L14.5789 30.99C14.4853 31.5338 14.709 32.0832 15.155 32.4074C15.4074 32.5908 15.7063 32.6844 16.007 32.6844C16.2375 32.6844 16.4688 32.6293 16.6808 32.5176L22.0012 29.7201L27.3216 32.5176C27.5352 32.6296 27.7653 32.684 28 32.6844C28.7992 32.6829 29.4466 32.0345 29.4466 31.2353C29.4466 31.1239 29.4342 31.0156 29.4104 30.9111L28.4079 25.0649L32.7122 20.8685C33.1069 20.4836 33.2491 19.9077 33.0786 19.3828C32.9084 18.8583 32.4549 18.476 31.9093 18.3967L25.9607 17.5322L23.3003 12.1411C23.0562 11.6467 22.5529 11.3335 22.0012 11.3335C21.4496 11.3335 20.9459 11.6467 20.7018 12.1411L18.0418 17.5322L12.0936 18.3967C11.548 18.476 11.0944 18.8583 10.9243 19.3828C10.7537 19.9077 10.896 20.4836 11.2906 20.8685L15.595 25.0649Z" fill="white"/>
</svg>
