<svg width="50" height="50" viewBox="0 0 50 50" fill="none" xmlns="http://www.w3.org/2000/svg">
    <rect x="50" y="50" width="50" height="50" rx="25" transform="rotate(180 50 50)" fill="#2F8B9B"/>
    <path d="M29.2143 33.5315C28.9556 33.8549 29.008 34.3269 29.3315 34.5857C29.6549 34.8444 30.1269 34.792 30.3857 34.4685L29.2143 33.5315ZM37.5856 25.4685C37.8444 25.1451 37.792 24.6731 37.4685 24.4143C37.1451 24.1556 36.6731 24.208 36.4143 24.5315L37.5856 25.4685ZM36.4143 25.4685C36.6731 25.792 37.1451 25.8444 37.4685 25.5857C37.792 25.3269 37.8444 24.8549 37.5857 24.5315L36.4143 25.4685ZM30.3857 15.5315C30.1269 15.208 29.6549 15.1556 29.3315 15.4144C29.008 15.6731 28.9556 16.1451 29.2143 16.4685L30.3857 15.5315ZM35.5 25.75C35.9142 25.75 36.25 25.4142 36.25 25C36.25 24.5858 35.9142 24.25 35.5 24.25L35.5 25.75ZM13 24.25C12.5858 24.25 12.25 24.5858 12.25 25C12.25 25.4142 12.5858 25.75 13 25.75L13 24.25ZM30.3857 34.4685L37.5856 25.4685L36.4143 24.5315L29.2143 33.5315L30.3857 34.4685ZM37.5857 24.5315L30.3857 15.5315L29.2143 16.4685L36.4143 25.4685L37.5857 24.5315ZM35.5 24.25L13 24.25L13 25.75L35.5 25.75L35.5 24.25Z" fill="white"/>
</svg>
