<svg width="227" height="40" viewBox="0 0 227 40" fill="none" xmlns="http://www.w3.org/2000/svg">
    <g clip-path="url(#clip0_401_954)">
        <path d="M206.971 0C195.935 0 186.984 8.91271 186.941 19.9231L186.944 19.9223L201.678 12.6095C201.594 12.5537 201.515 12.4904 201.443 12.4202C201.419 12.3972 201.401 12.3693 201.39 12.3383C201.378 12.3074 201.374 12.2743 201.377 12.2414C201.383 12.175 201.419 12.1147 201.474 12.077C202.69 11.2577 203.813 10.3084 204.822 9.24572C205.003 9.0551 205.189 8.86953 205.38 8.68923C205.381 8.68828 205.383 8.6875 205.383 8.68655C205.6 8.48213 205.869 8.34046 206.16 8.27673C207.104 8.06758 209.334 7.552 210.791 7.04446C211.396 6.8324 212.049 6.79982 212.672 6.95066C212.761 6.9719 212.848 6.99709 212.937 7.02101L217.857 4.57942C217.874 4.57093 217.893 4.56692 217.911 4.56776C217.93 4.56861 217.949 4.57429 217.965 4.58427C217.981 4.59424 217.994 4.60817 218.004 4.62473C218.013 4.6413 218.018 4.65994 218.018 4.67889V6.25882C218.017 6.28028 218.011 6.30126 218 6.31926C217.988 6.33726 217.971 6.35152 217.952 6.36033L214.853 7.75408C215.295 7.97881 215.719 8.23682 216.122 8.52587L218.435 7.56869C218.455 7.56029 218.478 7.55811 218.499 7.56242C218.521 7.56674 218.541 7.57735 218.557 7.59293L219.661 8.69536C219.674 8.70851 219.684 8.72482 219.689 8.74275C219.694 8.76068 219.694 8.77963 219.69 8.79782C219.686 8.81596 219.678 8.83285 219.666 8.84688C219.654 8.86092 219.638 8.87166 219.621 8.87808L217.469 9.67505C218.878 11.1105 219.705 12.8905 219.99 14.1028C221.23 18.8507 219.839 29.4359 213.542 38.8958V38.8968C213.542 38.8977 213.542 38.8987 213.541 38.8996C221.376 36.1842 227 28.7493 227 20.001C227 8.95488 218.032 0 206.971 0ZM214.306 18.934C212.904 17.9921 211.61 16.8984 210.448 15.6729C210.293 15.5085 210.105 15.3776 209.897 15.288C209.688 15.1985 209.464 15.1523 209.237 15.1522H204.932C204.436 15.1522 203.957 15.0406 203.523 14.8388L186.967 20.9694L186.965 20.9697C187.311 28.2082 191.509 34.4373 197.557 37.659C197.558 37.6584 197.559 37.6574 197.559 37.6565C206.133 35.5534 212.846 28.7285 214.773 20.0986C214.821 19.8802 214.803 19.6521 214.72 19.4444C214.637 19.2366 214.492 19.0587 214.306 18.934ZM206.438 12.9432H208.167C208.267 12.9432 208.363 12.9102 208.442 12.8494C208.521 12.7886 208.577 12.7035 208.602 12.6073C208.698 12.2387 208.698 11.8514 208.602 11.4827C208.577 11.3863 208.521 11.301 208.442 11.2401C208.363 11.1792 208.266 11.1462 208.166 11.1464H207.314L207.311 11.1476H205.936C205.783 11.1475 205.635 11.2041 205.521 11.3064C205.407 11.4087 205.335 11.5495 205.319 11.7016C205.318 11.7016 205.318 11.7021 205.318 11.7024C205.295 11.9142 205.372 12.1977 205.535 12.4903C205.556 12.518 205.577 12.5458 205.601 12.5719C205.707 12.6889 205.836 12.7823 205.98 12.8463C206.124 12.9102 206.28 12.9432 206.438 12.9432Z" fill="#ED1B34"/>
        <path d="M137.794 27.6514V13.3321L133.735 14.037V33.6856H137.794L147.5 19.3089V33.6856H151.559V13.5084L146.941 14.096L137.794 27.6514ZM68.7064 17.268H75.1778V33.6856H79.295V17.268H85.5009L86.6771 13.6845H68.7064V17.268ZM163.766 13.6845C160.089 13.6845 156.501 15.9164 156.501 20.381C156.501 22.789 157.589 24.5808 159.236 25.6676C159.555 25.8681 160.216 26.2301 161.275 26.5054C158.916 29.7367 156.607 30.491 155.443 30.807L156.53 34.0674C160.939 33.7552 163.403 30.3451 165.505 26.8719H169.471V33.6856H173.588V13.6845H163.766ZM169.471 23.5817H163.589C162.177 23.5817 160.59 22.6129 160.56 20.3811C160.56 18.2664 161.913 17.2386 163.589 17.2386H169.471V23.5817ZM37.0672 23.1362L43.6463 14.096L39.5874 13.3321L33.5292 21.7613H30.6465V13.3321L26.5293 14.0666V33.6856H30.6465V25.4324H33.823C35.7643 29.0162 38.7938 33.9198 43.1466 34.0379L44.3228 30.455C43.8228 30.3077 43.382 30.1312 42.9404 29.9266C40.0588 28.4728 38.4503 25.6382 37.0672 23.1362ZM96.9419 13.2148C90.589 13.2148 86.9421 17.3261 86.9421 22.8767V24.4341C86.9421 30.0143 90.5891 34.1559 96.9419 34.1559C103.177 34.1559 106.854 30.0143 106.854 24.4341V22.8767C106.854 17.3262 103.177 13.2148 96.9419 13.2148ZM102.619 24.4341C102.619 27.6357 101.089 30.2789 96.9421 30.2789C92.7067 30.2789 91.1776 27.6357 91.1776 24.4341V22.8767C91.1776 19.6465 92.7068 17.0031 96.9421 17.0031C101.089 17.0031 102.619 19.6465 102.619 22.8767V24.4341ZM51.7356 27.6523V13.3321L47.6767 14.037V33.6856H51.7356L61.4415 19.3089V33.6856H65.5004V13.5084L60.8825 14.096L51.7356 27.6523Z" fill="white"/>
        <path d="M212.294 11.1476C213.086 11.1476 213.872 11.0066 214.615 10.7318L219.62 8.87838C219.637 8.8719 219.653 8.86116 219.665 8.84714C219.678 8.83313 219.686 8.81628 219.69 8.79812C219.694 8.77987 219.694 8.76094 219.688 8.74304C219.683 8.72514 219.673 8.70885 219.66 8.69566L218.556 7.59322C218.541 7.57764 218.521 7.56702 218.499 7.56271C218.478 7.55839 218.455 7.56058 218.435 7.56898L209.794 11.1476H212.294Z" fill="black"/>
        <path d="M9.38191 7.72266C4.02958 7.72266 0.294084 11.4233 0.264612 16.2396C0.264612 20.2641 3.14732 23.818 7.20605 24.4933C5.32318 27.3121 3.08806 29.5743 0 30.3961L1.20581 34.0381C6.35216 33.8619 9.35212 28.898 11.9116 24.7572H16.7642V33.6858H20.9412V7.72266H9.38191ZM16.7643 20.8509H9.38191C6.76445 20.8509 4.79363 19.0011 4.79363 16.2396C4.79363 13.4209 6.76445 11.6586 9.38191 11.6586H16.7643V20.8509ZM120.736 13.3027C118.588 13.3027 115.972 14.301 114.707 15.8288V13.6847H110.854V40.0001H114.971V32.3349C116.325 34.0086 118.913 34.2441 120.736 34.2441C125.942 34.2441 129.559 31.3947 129.559 24.4639V23.0245C129.559 15.8584 125.53 13.3027 120.736 13.3027ZM125.471 24.4343C125.471 26.7833 124.794 30.4552 120.735 30.4552C118.706 30.4552 115.972 29.8678 114.971 28.0462V19.9694C116.03 18.5016 117.971 17.0327 120.735 17.0327C124.442 17.0327 125.471 20.1457 125.471 23.0243V24.4343Z" fill="white"/>
        <path d="M219.979 14.0581C220.073 14.4491 220.1 14.8155 220.025 15.2629C219.668 16.9793 217.701 17.8048 216.226 16.8646C215.313 16.2829 214.45 15.6276 213.644 14.9054C213.068 14.3907 212.331 14.0915 211.559 14.059L207.847 13.9018C206.203 13.8332 205.246 12.39 205.319 11.7029V11.7021C205.335 11.5499 205.407 11.4091 205.521 11.3068C205.636 11.2046 205.783 11.148 205.937 11.1481H207.31L217.952 6.36095C217.971 6.3521 217.988 6.33781 217.999 6.3198C218.011 6.30179 218.017 6.28083 218.017 6.25943V4.67951C218.017 4.66061 218.012 4.64202 218.003 4.62546C217.994 4.6089 217.981 4.5949 217.965 4.58476C217.949 4.5749 217.93 4.56929 217.911 4.56847C217.892 4.56764 217.873 4.57162 217.856 4.58004L186.945 19.9228C186.945 20.1269 186.942 20.1885 186.95 20.4879C186.954 20.6567 186.963 20.8863 186.967 20.9697L203.523 14.8391C203.964 15.0451 204.445 15.152 204.932 15.1525H209.237C209.695 15.1525 210.133 15.3413 210.448 15.6732C211.61 16.8989 212.903 17.9926 214.305 18.9343C214.492 19.0589 214.636 19.2368 214.719 19.4446C214.802 19.6523 214.82 19.8804 214.772 20.0987C212.845 28.7286 206.133 35.5535 197.559 37.6566C200.364 39.1517 203.569 39.9998 206.97 39.9998C209.272 39.9998 211.483 39.6106 213.541 38.8972V38.8963C219.858 29.4071 221.239 18.7848 219.979 14.0581Z" fill="black"/>
        <path d="M212.937 7.02124L201.677 12.6099C201.594 12.5538 201.515 12.4904 201.443 12.4203C201.419 12.3973 201.401 12.3693 201.39 12.3384C201.378 12.3074 201.374 12.2743 201.377 12.2415C201.383 12.1751 201.419 12.1148 201.474 12.077C202.69 11.258 203.813 10.3086 204.822 9.2458C205.003 9.05541 205.19 8.86984 205.381 8.6893L205.384 8.68663C205.601 8.48259 205.869 8.34099 206.16 8.27681C207.104 8.06765 209.334 7.55208 210.792 7.04453C211.396 6.83247 212.05 6.79989 212.672 6.95073C212.761 6.97214 212.849 6.99732 212.937 7.02124ZM219.978 14.0537C219.915 13.7985 219.824 13.5328 219.712 13.2277L219.713 13.2273C219.225 11.8977 218.459 10.6872 217.466 9.67639L214.616 10.7321C213.873 11.0069 213.087 11.1477 212.294 11.1479H209.794L216.12 8.52768C215.718 8.23819 215.293 7.98001 214.851 7.75541L207.31 11.1479H208.167C208.372 11.1479 208.55 11.2854 208.602 11.4839C208.649 11.6636 208.674 11.8518 208.674 12.0464C208.674 12.2404 208.649 12.4288 208.602 12.6085C208.577 12.7047 208.521 12.7898 208.442 12.8506C208.363 12.9114 208.266 12.9444 208.167 12.9445H206.438C206.263 12.9448 206.089 12.9038 205.932 12.8251C205.775 12.7463 205.639 12.6319 205.534 12.491C205.996 13.3018 206.852 13.86 207.847 13.9016L211.559 14.0588C212.331 14.0913 213.068 14.3905 213.643 14.9052C214.449 15.6274 215.313 16.2827 216.226 16.8644C217.701 17.8046 219.668 16.9791 220.025 15.2627C220.099 14.8137 220.073 14.4466 219.978 14.0537Z" fill="white"/>
    </g>
    <defs>
        <clipPath id="clip0_401_954">
            <rect width="227" height="40" fill="white"/>
        </clipPath>
    </defs>
</svg>
