<svg width="40" height="40" viewBox="0 0 40 40" fill="none" xmlns="http://www.w3.org/2000/svg">
    <g clip-path="url(#clip0_702_2304)">
        <path d="M19.9708 0C8.93483 0 -0.0157259 8.91271 -0.0585938 19.9231L-0.0555925 19.9223L14.6776 12.6095C14.5937 12.5537 14.5152 12.4904 14.443 12.4202C14.4193 12.3972 14.4011 12.3693 14.3897 12.3383C14.3782 12.3074 14.3738 12.2743 14.3768 12.2414C14.3828 12.175 14.4188 12.1147 14.4742 12.077C15.69 11.2577 16.8125 10.3084 17.8219 9.24572C18.0027 9.0551 18.1889 8.86953 18.3801 8.68923C18.3809 8.68828 18.3828 8.6875 18.3834 8.68655C18.6002 8.48213 18.8685 8.34046 19.1598 8.27673C20.1038 8.06758 22.3337 7.552 23.7906 7.04446C24.3955 6.8324 25.049 6.79982 25.672 6.95066C25.7608 6.9719 25.8484 6.99709 25.9371 7.02101L30.8567 4.57942C30.8736 4.57093 30.8925 4.56692 30.9115 4.56776C30.9304 4.56861 30.9488 4.57429 30.965 4.58427C30.9811 4.59424 30.9944 4.60817 31.0036 4.62473C31.0128 4.6413 31.0176 4.65994 31.0176 4.67889V6.25882C31.0175 6.28028 31.0112 6.30126 30.9995 6.31926C30.9878 6.33726 30.9712 6.35152 30.9516 6.36033L27.8533 7.75408C28.2951 7.97881 28.7191 8.23682 29.1216 8.52587L31.4349 7.56869C31.4554 7.56029 31.4778 7.55811 31.4994 7.56242C31.5211 7.56674 31.541 7.57735 31.5566 7.59293L32.6606 8.69536C32.6739 8.70851 32.6836 8.72482 32.6888 8.74275C32.6939 8.76068 32.6945 8.77963 32.6902 8.79782C32.6864 8.81596 32.6781 8.83285 32.6659 8.84688C32.6538 8.86092 32.6383 8.87166 32.6209 8.87808L30.4685 9.67505C31.8776 11.1105 32.7054 12.8905 32.9897 14.1028C34.2302 18.8507 32.8392 29.4359 26.5419 38.8958V38.8968C26.5419 38.8977 26.5418 38.8987 26.5409 38.8996C34.3763 36.1842 40.0005 28.7493 40.0005 20.001C40.0002 8.95488 31.0321 0 19.9708 0ZM27.3064 18.934C25.9041 17.9921 24.6103 16.8984 23.4484 15.6729C23.2926 15.5085 23.1048 15.3776 22.8966 15.288C22.6884 15.1985 22.4641 15.1523 22.2374 15.1522H17.9317C17.4359 15.1522 16.9571 15.0406 16.5226 14.8388L-0.032891 20.9694L-0.0354113 20.9697C0.310526 28.2082 4.50936 34.4373 10.5572 37.659C10.5581 37.6584 10.5589 37.6574 10.5589 37.6565C19.1331 35.5534 25.846 28.7285 27.7727 20.0986C27.8214 19.8802 27.8029 19.6521 27.7197 19.4444C27.6365 19.2366 27.4924 19.0587 27.3064 18.934ZM19.4379 12.9432H21.1673C21.2668 12.9432 21.3634 12.9102 21.4421 12.8494C21.5207 12.7886 21.577 12.7035 21.602 12.6073C21.6985 12.2387 21.6985 11.8514 21.602 11.4827C21.577 11.3863 21.5207 11.301 21.4418 11.2401C21.3629 11.1792 21.266 11.1462 21.1664 11.1464H20.3136L20.3107 11.1476H18.9363C18.783 11.1475 18.6352 11.2041 18.5212 11.3064C18.4073 11.4087 18.3353 11.5495 18.3191 11.7016C18.3182 11.7016 18.3182 11.7021 18.3182 11.7024C18.2953 11.9142 18.3722 12.1977 18.5347 12.4903C18.5555 12.518 18.5774 12.5458 18.6007 12.5719C18.7065 12.6889 18.8357 12.7823 18.9799 12.8463C19.1241 12.9102 19.2801 12.9432 19.4379 12.9432Z" fill="#ED1B34"/>
        <path d="M25.294 11.1476C26.0861 11.1476 26.8719 11.0066 27.6152 10.7318L32.62 8.87838C32.6375 8.8719 32.653 8.86116 32.6653 8.84714C32.6776 8.83313 32.6862 8.81628 32.6903 8.79812C32.6942 8.77987 32.6935 8.76094 32.6882 8.74304C32.6829 8.72514 32.6732 8.70885 32.66 8.69566L31.556 7.59322C31.5405 7.57764 31.5207 7.56702 31.4992 7.56271C31.4776 7.55839 31.4553 7.56058 31.435 7.56898L22.7939 11.1476H25.294Z" fill="black"/>
        <path d="M32.9787 14.0581C33.0734 14.4491 33.0996 14.8155 33.0247 15.2629C32.6681 16.9793 30.7009 17.8048 29.2263 16.8646C28.3134 16.2829 27.4496 15.6276 26.6436 14.9054C26.0678 14.3907 25.3309 14.0915 24.5588 14.059L20.8468 13.9018C19.2027 13.8332 18.2457 12.39 18.3187 11.7029V11.7021C18.3351 11.5499 18.4074 11.4091 18.5215 11.3068C18.6356 11.2046 18.7835 11.148 18.9368 11.1481H20.3103L30.9518 6.36095C30.9713 6.3521 30.9878 6.33781 30.9994 6.3198C31.011 6.30179 31.0171 6.28083 31.017 6.25943V4.67951C31.017 4.66061 31.0122 4.64202 31.0031 4.62546C30.994 4.6089 30.9808 4.5949 30.9648 4.58476C30.9486 4.5749 30.9302 4.56929 30.9112 4.56847C30.8922 4.56764 30.8733 4.57162 30.8563 4.58004L-0.0552228 19.9228C-0.0552228 20.1269 -0.0579085 20.1885 -0.0500284 20.4879C-0.0457731 20.6567 -0.036946 20.8863 -0.0328483 20.9697L16.5228 14.8391C16.9639 15.0451 17.4447 15.152 17.9316 15.1525H22.2365C22.6945 15.1525 23.1326 15.3413 23.4482 15.6732C24.6096 16.8989 25.9033 17.9926 27.3055 18.9343C27.4916 19.0589 27.6357 19.2368 27.7188 19.4446C27.802 19.6523 27.8203 19.8804 27.7715 20.0987C25.8448 28.7286 19.1329 35.5535 10.5587 37.6566C13.3641 39.1517 16.5685 39.9998 19.9702 39.9998C22.272 39.9998 24.4827 39.6106 26.5413 38.8972V38.8963C32.8581 29.4071 34.2387 18.7848 32.9787 14.0581Z" fill="black"/>
        <path d="M25.9369 7.02124L14.6775 12.6099C14.5938 12.5538 14.5153 12.4904 14.4429 12.4203C14.4193 12.3973 14.4011 12.3693 14.3897 12.3384C14.3782 12.3074 14.3739 12.2743 14.3769 12.2415C14.3829 12.1751 14.4187 12.1148 14.4743 12.077C15.6902 11.258 16.8127 10.3086 17.8218 9.2458C18.0032 9.05541 18.1896 8.86984 18.3808 8.6893L18.3836 8.68663C18.6007 8.48259 18.8689 8.34099 19.16 8.27681C20.104 8.06765 22.3339 7.55208 23.7918 7.04453C24.3964 6.83247 25.0496 6.79989 25.6724 6.95073C25.7613 6.97214 25.8493 6.99732 25.9369 7.02124ZM32.9776 14.0537C32.9152 13.7985 32.8238 13.5328 32.7116 13.2277L32.7133 13.2273C32.2253 11.8977 31.4592 10.6872 30.4661 9.67639L27.6155 10.7321C26.8725 11.0069 26.0865 11.1477 25.2942 11.1479H22.7941L29.1203 8.52768C28.7176 8.23819 28.2932 7.98001 27.851 7.75541L20.3103 11.1479H21.1667C21.3721 11.1479 21.5503 11.2854 21.6025 11.4839C21.6485 11.6636 21.6737 11.8518 21.6737 12.0464C21.6737 12.2404 21.6485 12.4288 21.6025 12.6085C21.5772 12.7047 21.5207 12.7898 21.4419 12.8506C21.3631 12.9114 21.2663 12.9444 21.1667 12.9445H19.4385C19.2627 12.9448 19.0894 12.9038 18.9324 12.8251C18.7754 12.7463 18.639 12.6319 18.5343 12.491C18.9959 13.3018 19.852 13.86 20.8468 13.9016L24.5588 14.0588C25.3309 14.0913 26.0677 14.3905 26.6434 14.9052C27.4495 15.6274 28.3134 16.2827 29.2264 16.8644C30.7006 17.8046 32.6681 16.9791 33.0246 15.2627C33.0994 14.8137 33.0733 14.4466 32.9776 14.0537Z" fill="white"/>
    </g>
    <defs>
        <clipPath id="clip0_702_2304">
            <rect width="40" height="40" fill="white"/>
        </clipPath>
    </defs>
</svg>

