<svg width="78" height="78" viewBox="0 0 78 78" fill="none" xmlns="http://www.w3.org/2000/svg">
    <path fill-rule="evenodd" clip-rule="evenodd" d="M2.33301 38.9985C2.33427 21.5069 14.6914 6.45196 31.8473 3.04065C49.0031 -0.370648 66.1797 8.81177 72.8725 24.9724C79.5653 41.1329 73.9103 59.7708 59.3659 69.4878C44.8215 79.2048 25.4385 77.2947 13.0706 64.9256C6.19473 58.0491 2.33231 48.7228 2.33301 38.9985Z" fill="white" fill-opacity="0.1"/>
    <path d="M31.701 2.30506C14.1942 5.78614 1.5843 21.149 1.58301 38.9985C1.58229 48.9217 5.52373 58.4388 12.5402 65.4559C25.1611 78.078 44.9407 80.0272 59.7826 70.1114C74.6245 60.1956 80.3951 41.1765 73.5654 24.6854C66.7357 8.19422 49.2078 -1.17603 31.701 2.30506Z" stroke="white" stroke-opacity="0.4" stroke-width="1.5" stroke-linecap="round" stroke-linejoin="round"/>
    <path d="M35.666 25.666L48.9993 38.9993L35.666 52.3327" stroke="white" stroke-width="1.5" stroke-linecap="round" stroke-linejoin="round"/>
</svg>
