<svg width="41" height="40" viewBox="0 0 41 40" fill="none" xmlns="http://www.w3.org/2000/svg">
    <g clip-path="url(#clip0_131_9785)">
        <path d="M20.5 4.6875C21.1477 4.6875 21.6719 4.16328 21.6719 3.51562V1.17187C21.6719 0.524219 21.1477 0 20.5 0C19.8523 0 19.3281 0.524219 19.3281 1.17187V3.51562C19.3281 4.16328 19.8523 4.6875 20.5 4.6875ZM26.016 6.68789L28.3598 4.34414C28.8176 3.88641 28.8176 3.14484 28.3598 2.68711C27.902 2.22937 27.1605 2.2293 26.7027 2.68711L24.359 5.03086C23.9012 5.48859 23.9012 6.23016 24.359 6.68789C24.8168 7.14562 25.5583 7.1457 26.016 6.68789ZM14.984 6.68789C15.4417 7.1457 16.1833 7.1457 16.641 6.68789C17.0987 6.23008 17.0988 5.48859 16.641 5.03086L14.2973 2.68711C13.8395 2.2293 13.098 2.2293 12.6402 2.68711C12.1825 3.14492 12.1824 3.88641 12.6402 4.34414L14.984 6.68789ZM11.0469 16.5625C11.0469 13.9773 8.94453 11.875 6.35937 11.875C3.77422 11.875 1.67188 13.9773 1.67188 16.5625C1.67188 19.1477 3.77422 21.25 6.35937 21.25C8.94453 21.25 11.0469 19.1477 11.0469 16.5625Z" fill="#44ACBE"/>
        <path d="M20.5 9.45312C18.5615 9.45312 16.9844 11.0303 16.9844 12.9687C16.9844 17.4914 13.2258 21.25 8.70312 21.25H6.35937C3.12875 21.25 0.5 23.8787 0.5 27.1094V38.8281C0.5 39.4758 1.02422 40 1.67187 40H11.0469C11.6935 40 12.2031 39.4758 12.2031 38.8294L12.2099 27.8705C19.0534 26.258 24.0156 20.0961 24.0156 12.9687C24.0156 11.0302 22.4384 9.45312 20.5 9.45312ZM39.3281 16.5625C39.3281 13.9773 37.2258 11.875 34.6406 11.875C32.0555 11.875 29.9531 13.9773 29.9531 16.5625C29.9531 19.1477 32.0555 21.25 34.6406 21.25C37.2258 21.25 39.3281 19.1477 39.3281 16.5625Z" fill="#2F8B9B"/>
        <path d="M34.6408 21.2501H32.297C29.6023 21.2501 27.1494 19.8484 25.653 17.8354C24.9673 20.2549 23.7729 22.4506 22.1777 24.3308C24.0463 25.9803 26.3552 27.2895 28.7899 27.8694L28.797 38.8294C28.797 39.4758 29.3066 40.0001 29.9533 40.0001H39.3283C39.9759 40.0001 40.5002 39.4758 40.5002 38.8282V27.1094C40.5002 23.8788 37.8714 21.2501 34.6408 21.2501Z" fill="#237685"/>
    </g>
    <defs>
        <clipPath id="clip0_131_9785">
            <rect width="40" height="40" fill="white" transform="translate(0.5)"/>
        </clipPath>
    </defs>
</svg>
