<svg width="78" height="78" viewBox="0 0 78 78" fill="none" xmlns="http://www.w3.org/2000/svg">
    <path fill-rule="evenodd" clip-rule="evenodd" d="M75.667 39.0015C75.6657 56.4931 63.3086 71.548 46.1527 74.9593C28.9969 78.3707 11.8203 69.1882 5.12749 53.0277C-1.56531 36.8671 4.08965 18.2292 18.6341 8.51222C33.1785 -1.20479 52.5615 0.705301 64.9294 13.0744C71.8053 19.9509 75.6677 29.2772 75.667 39.0015Z" fill="white" fill-opacity="0.1"/>
    <path d="M46.299 75.6949C63.8058 72.2139 76.4157 56.851 76.417 39.0015C76.4177 29.0783 72.4763 19.5612 65.4598 12.5441C52.8389 -0.0780238 33.0593 -2.02719 18.2174 7.88859C3.37549 17.8044 -2.39514 36.8235 4.43457 53.3146C11.2643 69.8058 28.7922 79.176 46.299 75.6949Z" stroke="white" stroke-opacity="0.4" stroke-width="1.5" stroke-linecap="round" stroke-linejoin="round"/>
    <path d="M42.334 52.334L29.0007 39.0007L42.334 25.6673" stroke="white" stroke-width="1.5" stroke-linecap="round" stroke-linejoin="round"/>
</svg>
