<svg width="20" height="20" viewBox="0 0 20 20" fill="none" xmlns="http://www.w3.org/2000/svg">
    <g clip-path="url(#clip0_222_253)">
        <path d="M10 2.34375C10.3238 2.34375 10.5859 2.08164 10.5859 1.75781V0.585938C10.5859 0.262109 10.3238 0 10 0C9.67617 0 9.41406 0.262109 9.41406 0.585938V1.75781C9.41406 2.08164 9.67617 2.34375 10 2.34375ZM12.758 3.34395L13.9299 2.17207C14.1588 1.9432 14.1588 1.57242 13.9299 1.34355C13.701 1.11469 13.3302 1.11465 13.1014 1.34355L11.9295 2.51543C11.7006 2.7443 11.7006 3.11508 11.9295 3.34395C12.1584 3.57281 12.5291 3.57285 12.758 3.34395ZM7.24199 3.34395C7.47086 3.57285 7.84164 3.57285 8.07051 3.34395C8.29938 3.11504 8.29941 2.7443 8.07051 2.51543L6.89863 1.34355C6.66977 1.11465 6.29898 1.11465 6.07012 1.34355C5.84125 1.57246 5.84121 1.9432 6.07012 2.17207L7.24199 3.34395ZM5.27344 8.28125C5.27344 6.98867 4.22227 5.9375 2.92969 5.9375C1.63711 5.9375 0.585938 6.98867 0.585938 8.28125C0.585938 9.57383 1.63711 10.625 2.92969 10.625C4.22227 10.625 5.27344 9.57383 5.27344 8.28125Z" fill="#8AE4A3"/>
        <path d="M10 4.72656C9.03074 4.72656 8.24219 5.51516 8.24219 6.48438C8.24219 8.7457 6.36289 10.625 4.10156 10.625H2.92969C1.31437 10.625 0 11.9394 0 13.5547V19.4141C0 19.7379 0.262109 20 0.585938 20H5.27344C5.59676 20 5.85156 19.7379 5.85156 19.4147L5.85496 13.9352C9.27672 13.129 11.7578 10.048 11.7578 6.48438C11.7578 5.51512 10.9692 4.72656 10 4.72656ZM19.4141 8.28125C19.4141 6.98867 18.3629 5.9375 17.0703 5.9375C15.7777 5.9375 14.7266 6.98867 14.7266 8.28125C14.7266 9.57383 15.7777 10.625 17.0703 10.625C18.3629 10.625 19.4141 9.57383 19.4141 8.28125Z" fill="#3CB85E"/>
        <path d="M17.0704 10.6248H15.8985C14.5512 10.6248 13.3247 9.92396 12.5765 8.91748C12.2337 10.1272 11.6364 11.2251 10.8389 12.1651C11.7732 12.9899 12.9276 13.6445 14.145 13.9344L14.1485 19.4145C14.1485 19.7376 14.4033 19.9998 14.7266 19.9998H19.4141C19.738 19.9998 20.0001 19.7377 20.0001 19.4138V13.5545C20.0001 11.9392 18.6857 10.6248 17.0704 10.6248Z" fill="#2FA04E"/>
    </g>
    <defs>
        <clipPath id="clip0_222_253">
            <rect width="20" height="20" fill="white"/>
        </clipPath>
    </defs>
</svg>
