<svg width="18" height="12" viewBox="0 0 18 12" fill="none" xmlns="http://www.w3.org/2000/svg">
    <g clip-path="url(#clip0_222_243)">
        <path d="M1.125 12H16.875C17.496 12 18 11.5113 18 10.9091V1.09091C18 0.488727 17.496 0 16.875 0H1.125C0.503999 0 -8.34465e-07 0.488727 -8.34465e-07 1.09091V10.9091C-8.34465e-07 11.5113 0.503999 12 1.125 12Z" fill="#3CB85E"/>
        <path d="M1.125 12.0001H16.875C17.5061 12.0001 18 11.5212 18 10.9092C17.9999 10.8236 17.9792 10.7392 17.9393 10.6628C17.8994 10.5865 17.8416 10.5203 17.7705 10.4695L9.333 5.015C9.234 4.94409 9.117 4.90918 9 4.90918C8.883 4.90918 8.766 4.94409 8.667 5.015L0.229499 10.4695C0.158395 10.5203 0.100577 10.5865 0.060712 10.6628C0.0208465 10.7392 4.87566e-05 10.8236 -8.34465e-07 10.9092C-8.34465e-07 11.5212 0.493875 12.0001 1.125 12.0001Z" fill="#2FA04E"/>
        <path d="M1.125 0H16.875C17.5061 0 18 0.478909 18 1.09091C17.9999 1.1765 17.9792 1.26089 17.9393 1.33725C17.8994 1.41362 17.8416 1.47983 17.7705 1.53055L9.3285 7.40727C9.13275 7.54364 8.86837 7.54364 8.67262 7.40727L0.230624 1.53055C0.159194 1.48006 0.101073 1.41392 0.0609962 1.33752C0.020919 1.26112 2.01464e-05 1.17662 -8.34465e-07 1.09091C-8.34465e-07 0.478909 0.493875 0 1.125 0Z" fill="#8AE4A3"/>
    </g>
    <defs>
        <clipPath id="clip0_222_243">
            <rect width="18" height="12" fill="white" transform="matrix(-1 0 0 1 18 0)"/>
        </clipPath>
    </defs>
</svg>
