<svg width="57" height="56" viewBox="0 0 57 56" fill="none" xmlns="http://www.w3.org/2000/svg">
    <path d="M5.18047 13.5259C4.29233 13.5259 3.57227 14.2458 3.57227 15.1341L3.57227 22.2127C3.57227 22.6181 3.77159 23.0033 4.11628 23.2166C5.71893 24.2078 6.78867 25.9768 6.78867 27.9998C6.78867 30.0227 5.71893 31.7917 4.11628 32.783C3.77159 32.9962 3.57227 33.3815 3.57227 33.7868L3.57227 40.8655C3.57227 41.7536 4.29233 42.4737 5.18047 42.4737H51.8187C52.7068 42.4737 53.4269 41.7536 53.4269 40.8655V15.1341C53.4269 14.2458 52.7068 13.5259 51.8187 13.5259L5.18047 13.5259Z" fill="#D9352A" fill-opacity="0.2"/>
    <path d="M35.2682 10.6997L32.3865 9.51795C31.7611 9.26149 31.0667 9.68648 31.0105 10.3601L30.662 14.54C30.5861 15.4501 31.6695 15.9773 32.3388 15.356L35.5691 12.3578C36.1043 11.861 35.9438 10.9767 35.2682 10.6997Z" fill="#D9352A"/>
    <path fill-rule="evenodd" clip-rule="evenodd" d="M10.3827 17.3688L10.5493 17.9906C10.5712 18.0723 10.5768 18.1575 10.5657 18.2413C10.5546 18.3252 10.5271 18.4061 10.4847 18.4793C10.4423 18.5526 10.3858 18.6168 10.3185 18.6683C10.2513 18.7198 10.1745 18.7576 10.0926 18.7795C10.0107 18.8015 9.92537 18.8071 9.84135 18.7962C9.75734 18.7852 9.67633 18.7578 9.60297 18.7156C9.5296 18.6733 9.46532 18.6171 9.41379 18.55C9.36226 18.4829 9.3245 18.4063 9.30267 18.3247L9.13605 17.7028L2.90287 19.373C2.21442 19.5575 1.80544 20.2638 1.98949 20.9507L3.45628 26.4248C3.54027 26.7383 3.7746 26.9948 4.08599 27.0881C5.5337 27.5218 6.72947 28.6676 7.14866 30.232C7.56784 31.7964 7.10519 33.3867 6.06827 34.4861C5.84526 34.7226 5.77059 35.062 5.85457 35.3754L7.32136 40.8495C7.50539 41.5363 8.21277 41.9436 8.90122 41.7591L15.1344 40.089L14.9678 39.4671C14.9458 39.3855 14.9403 39.3003 14.9513 39.2164C14.9624 39.1326 14.99 39.0517 15.0324 38.9784C15.0748 38.9052 15.1313 38.8409 15.1985 38.7894C15.2658 38.7379 15.3426 38.7002 15.4245 38.6783C15.5063 38.6563 15.5917 38.6506 15.6757 38.6616C15.7597 38.6725 15.8407 38.6999 15.9141 38.7422C15.9875 38.7844 16.0517 38.8407 16.1033 38.9078C16.1548 38.9748 16.1926 39.0514 16.2144 39.1331L16.381 39.7549L25.1496 37.4054C25.7116 37.2548 26.1802 36.8669 26.4331 36.3429L27.3399 34.4641C27.7598 33.5942 27.4979 32.5485 26.7175 31.9791L25.3674 30.994C24.6422 30.4649 24.3584 29.5174 24.6734 28.6767L25.48 26.5237C25.7798 25.7234 25.538 24.8211 24.8782 24.2779L23.0667 22.7866C22.3909 22.2303 22.1554 21.2992 22.4854 20.4885L23.2024 18.7268C23.568 17.8286 23.2364 16.7974 22.4158 16.2806L20.7759 15.2478C20.3044 14.9508 19.7305 14.864 19.1924 15.0082L10.3827 17.3688ZM15.5644 36.8965C15.5754 36.8126 15.5699 36.7274 15.5479 36.6458L15.2147 35.4021C15.1928 35.3204 15.1551 35.2438 15.1036 35.1768C15.052 35.1097 14.9877 35.0534 14.9144 35.0112C14.841 34.9689 14.76 34.9415 14.676 34.9306C14.592 34.9196 14.5066 34.9253 14.4248 34.9473C14.3429 34.9692 14.2661 35.0069 14.1988 35.0584C14.1315 35.1099 14.0751 35.1742 14.0327 35.2474C13.9902 35.3207 13.9627 35.4016 13.9516 35.4854C13.9405 35.5693 13.9461 35.6545 13.9681 35.7361L14.3013 36.9798C14.3231 37.0615 14.3609 37.1381 14.4124 37.2051C14.464 37.2722 14.5282 37.3285 14.6016 37.3707C14.675 37.413 14.756 37.4403 14.84 37.4513C14.924 37.4623 15.0094 37.4566 15.0912 37.4346C15.1731 37.4127 15.2499 37.375 15.3172 37.3235C15.3844 37.2719 15.4409 37.2077 15.4833 37.1345C15.5257 37.0612 15.5533 36.9803 15.5644 36.8965ZM14.5646 33.1654C14.5757 33.0815 14.5701 32.9964 14.5482 32.9147L14.2149 31.671C14.1931 31.5893 14.1553 31.5128 14.1038 31.4457C14.0523 31.3786 13.988 31.3223 13.9146 31.2801C13.8413 31.2379 13.7603 31.2105 13.6763 31.1995C13.5922 31.1886 13.5069 31.1942 13.425 31.2162C13.3431 31.2381 13.2664 31.2759 13.1991 31.3274C13.1318 31.3789 13.0753 31.4431 13.0329 31.5164C12.9905 31.5896 12.963 31.6705 12.9519 31.7543C12.9408 31.8382 12.9464 31.9234 12.9683 32.0051L13.3016 33.2487C13.3234 33.3304 13.3612 33.407 13.4127 33.4741C13.4642 33.5411 13.5285 33.5974 13.6019 33.6396C13.6752 33.6819 13.7562 33.7093 13.8402 33.7202C13.9243 33.7312 14.0096 33.7255 14.0915 33.7035C14.1734 33.6817 14.2501 33.6439 14.3174 33.5924C14.3847 33.5409 14.4412 33.4767 14.4836 33.4034C14.526 33.3301 14.5535 33.2493 14.5646 33.1654ZM13.5649 29.4344C13.576 29.3505 13.5704 29.2654 13.5485 29.1837L13.2152 27.94C13.1934 27.8583 13.1556 27.7818 13.1041 27.7147C13.0526 27.6476 12.9883 27.5913 12.9149 27.5491C12.8416 27.5069 12.7606 27.4795 12.6765 27.4685C12.5925 27.4576 12.5071 27.4632 12.4253 27.4852C12.3434 27.5071 12.2666 27.5449 12.1994 27.5964C12.1321 27.6479 12.0756 27.7121 12.0332 27.7854C11.9908 27.8586 11.9633 27.9395 11.9522 28.0233C11.9411 28.1072 11.9467 28.1924 11.9686 28.2741L12.3018 29.5177C12.3237 29.5994 12.3614 29.676 12.413 29.7431C12.4645 29.8101 12.5288 29.8664 12.6021 29.9087C12.6755 29.9509 12.7565 29.9783 12.8405 29.9892C12.9245 30.0002 13.0099 29.9945 13.0918 29.9725C13.1737 29.9507 13.2504 29.9129 13.3177 29.8614C13.385 29.8099 13.4414 29.7457 13.4839 29.6724C13.5263 29.5991 13.5538 29.5183 13.5649 29.4344ZM12.5652 25.7034C12.5763 25.6196 12.5707 25.5344 12.5487 25.4527L12.2155 24.209C12.1937 24.1273 12.1559 24.0508 12.1044 23.9837C12.0529 23.9166 11.9886 23.8603 11.9152 23.8181C11.8418 23.7759 11.7608 23.7485 11.6768 23.7375C11.5928 23.7266 11.5074 23.7322 11.4256 23.7542C11.3437 23.7761 11.2669 23.8139 11.1996 23.8654C11.1324 23.9169 11.0759 23.9811 11.0335 24.0544C10.9911 24.1276 10.9635 24.2085 10.9525 24.2924C10.9414 24.3762 10.947 24.4614 10.9689 24.5431L11.3021 25.7867C11.324 25.8684 11.3617 25.945 11.4132 26.0121C11.4648 26.0791 11.5291 26.1354 11.6024 26.1777C11.6758 26.2199 11.7568 26.2473 11.8408 26.2582C11.9248 26.2692 12.0102 26.2635 12.0921 26.2415C12.1739 26.2197 12.2507 26.1819 12.318 26.1304C12.3853 26.0789 12.4417 26.0147 12.4841 25.9414C12.5266 25.8681 12.5541 25.7873 12.5652 25.7034ZM11.5654 21.9723C11.5765 21.8885 11.5709 21.8033 11.549 21.7216L11.2158 20.478C11.1939 20.3963 11.1562 20.3197 11.1046 20.2526C11.0531 20.1855 10.9888 20.1293 10.9155 20.087C10.8421 20.0448 10.7611 20.0174 10.6771 20.0064C10.5931 19.9955 10.5077 20.0012 10.4258 20.0231C10.344 20.045 10.2672 20.0828 10.1999 20.1343C10.1326 20.1858 10.0762 20.25 10.0338 20.3233C9.99134 20.3966 9.9638 20.4774 9.95271 20.5613C9.94163 20.6451 9.94721 20.7303 9.96915 20.812L10.3024 22.0557C10.3242 22.1373 10.362 22.2139 10.4135 22.281C10.465 22.3481 10.5293 22.4043 10.6027 22.4466C10.6761 22.4888 10.7571 22.5162 10.8411 22.5272C10.9251 22.5381 11.0105 22.5325 11.0923 22.5105C11.1742 22.4886 11.251 22.4508 11.3182 22.3993C11.3855 22.3478 11.442 22.2836 11.4844 22.2103C11.5268 22.1371 11.5544 22.0562 11.5654 21.9723Z" fill="#D9352A"/>
    <path d="M49.3346 41.785C49.1506 42.4718 48.4432 42.8791 47.7548 42.6946L32 38.4731C30.7203 38.1302 30.4343 36.4428 31.5297 35.6974C32.1479 35.2766 32.3771 34.4742 32.0743 33.7904L31.2452 31.9179C30.8817 31.097 31.1097 30.1346 31.8027 29.564L33.5778 28.1027C34.2376 27.5595 34.4794 26.6572 34.1796 25.857L33.3564 23.6596C33.0493 22.84 33.3109 21.9159 34.002 21.3788L35.8775 19.9212C36.4271 19.4941 36.591 18.7342 36.2664 18.1185C35.6824 17.0107 36.698 15.7385 37.9076 16.0627L53.7531 20.3085C54.4415 20.4929 54.8505 21.1993 54.6665 21.8862L49.3346 41.785Z" fill="#D9352A"/>
</svg>
