<svg width="57" height="56" viewBox="0 0 57 56" fill="none" xmlns="http://www.w3.org/2000/svg">
    <path d="M9.72137 7.98362C8.8635 7.75375 7.98163 8.26282 7.75174 9.12078L5.91964 15.9583C5.81473 16.3498 5.90756 16.7735 6.18532 17.0687C7.4768 18.4409 8.05225 20.4265 7.52865 22.3806C7.00509 24.3345 5.51394 25.7665 3.70934 26.3091C3.3212 26.4259 3.02895 26.7465 2.92406 27.1379L1.09196 33.9754C0.862095 34.8333 1.37126 35.7152 2.22913 35.945L47.2782 48.0159C48.136 48.2458 49.0179 47.7366 49.2478 46.8787L55.9076 22.0241C56.1375 21.1661 55.6283 20.2843 54.7704 20.0545L9.72137 7.98362Z" fill="#3CB85E" fill-opacity="0.2"/>
    <path d="M51.8187 13.5259H14.8298V14.33C14.8298 14.4356 14.8091 14.5402 14.7687 14.6378C14.7283 14.7354 14.6691 14.824 14.5944 14.8987C14.5197 14.9734 14.431 15.0326 14.3335 15.073C14.2359 15.1134 14.1313 15.1341 14.0257 15.1341C13.92 15.1341 13.8155 15.1134 13.7179 15.073C13.6203 15.0326 13.5316 14.9734 13.4569 14.8987C13.3823 14.824 13.323 14.7354 13.2826 14.6378C13.2423 14.5402 13.2215 14.4356 13.2216 14.33V13.5259H5.18047C4.29233 13.5259 3.57227 14.2458 3.57227 15.1341V22.2127C3.57227 22.6181 3.77159 23.0033 4.11628 23.2166C5.71893 24.2078 6.78867 25.9768 6.78867 27.9998C6.78867 30.0227 5.71893 31.7917 4.11628 32.783C3.77159 32.9962 3.57227 33.3815 3.57227 33.7868V40.8655C3.57227 41.7536 4.29233 42.4737 5.18047 42.4737H13.2216V41.6696C13.2215 41.564 13.2423 41.4594 13.2826 41.3618C13.323 41.2642 13.3823 41.1755 13.4569 41.1008C13.5316 41.0262 13.6203 40.9669 13.7179 40.9266C13.8155 40.8862 13.92 40.8654 14.0257 40.8655C14.1313 40.8654 14.2359 40.8862 14.3335 40.9266C14.431 40.9669 14.5197 41.0262 14.5944 41.1008C14.6691 41.1755 14.7283 41.2642 14.7687 41.3618C14.8091 41.4594 14.8298 41.564 14.8298 41.6696V42.4737H51.8187C52.7068 42.4737 53.4269 41.7536 53.4269 40.8655V15.1341C53.4269 14.2458 52.7068 13.5259 51.8187 13.5259ZM14.8298 38.4532C14.8298 38.5588 14.8091 38.6634 14.7687 38.761C14.7283 38.8586 14.6691 38.9472 14.5944 39.0219C14.5197 39.0966 14.431 39.1558 14.3335 39.1962C14.2359 39.2366 14.1313 39.2573 14.0257 39.2573C13.92 39.2573 13.8155 39.2366 13.7179 39.1962C13.6203 39.1558 13.5316 39.0966 13.4569 39.0219C13.3823 38.9472 13.323 38.8586 13.2826 38.761C13.2423 38.6634 13.2215 38.5588 13.2216 38.4532V36.845C13.2215 36.7394 13.2423 36.6348 13.2826 36.5372C13.323 36.4396 13.3823 36.3509 13.4569 36.2762C13.5316 36.2016 13.6203 36.1423 13.7179 36.102C13.8155 36.0616 13.92 36.0408 14.0257 36.0409C14.1313 36.0408 14.2359 36.0616 14.3335 36.102C14.431 36.1423 14.5197 36.2016 14.5944 36.2762C14.6691 36.3509 14.7283 36.4396 14.7687 36.5372C14.8091 36.6348 14.8298 36.7394 14.8298 36.845V38.4532ZM14.8298 33.6285C14.8298 33.7341 14.8091 33.8387 14.7687 33.9363C14.7283 34.0339 14.6691 34.1225 14.5944 34.1972C14.5197 34.2719 14.431 34.3311 14.3335 34.3715C14.2359 34.4119 14.1313 34.4326 14.0257 34.4326C13.92 34.4326 13.8155 34.4119 13.7179 34.3715C13.6203 34.3311 13.5316 34.2719 13.4569 34.1972C13.3823 34.1225 13.323 34.0339 13.2826 33.9363C13.2423 33.8387 13.2215 33.7341 13.2216 33.6285V32.0203C13.2215 31.9147 13.2423 31.8101 13.2826 31.7125C13.323 31.6149 13.3823 31.5262 13.4569 31.4515C13.5316 31.3769 13.6203 31.3176 13.7179 31.2773C13.8155 31.2369 13.92 31.2161 14.0257 31.2162C14.1313 31.2161 14.2359 31.2369 14.3335 31.2773C14.431 31.3176 14.5197 31.3769 14.5944 31.4515C14.6691 31.5262 14.7283 31.6149 14.7687 31.7125C14.8091 31.8101 14.8298 31.9147 14.8298 32.0203V33.6285ZM14.8298 28.8039C14.8298 28.9095 14.8091 29.0141 14.7687 29.1117C14.7283 29.2093 14.6691 29.2979 14.5944 29.3726C14.5197 29.4473 14.431 29.5065 14.3335 29.5469C14.2359 29.5873 14.1313 29.608 14.0257 29.608C13.92 29.608 13.8155 29.5873 13.7179 29.5469C13.6203 29.5065 13.5316 29.4473 13.4569 29.3726C13.3823 29.2979 13.323 29.2093 13.2826 29.1117C13.2423 29.0141 13.2215 28.9095 13.2216 28.8039V27.1957C13.2215 27.0901 13.2423 26.9855 13.2826 26.8879C13.323 26.7903 13.3823 26.7016 13.4569 26.6269C13.5316 26.5523 13.6203 26.493 13.7179 26.4527C13.8155 26.4123 13.92 26.3915 14.0257 26.3916C14.1313 26.3915 14.2359 26.4123 14.3335 26.4527C14.431 26.493 14.5197 26.5523 14.5944 26.6269C14.6691 26.7016 14.7283 26.7903 14.7687 26.8879C14.8091 26.9855 14.8298 27.0901 14.8298 27.1957V28.8039ZM14.8298 23.9793C14.8298 24.0849 14.8091 24.1895 14.7687 24.2871C14.7283 24.3847 14.6691 24.4733 14.5944 24.548C14.5197 24.6227 14.431 24.6819 14.3335 24.7223C14.2359 24.7627 14.1313 24.7834 14.0257 24.7834C13.92 24.7834 13.8155 24.7627 13.7179 24.7223C13.6203 24.6819 13.5316 24.6227 13.4569 24.548C13.3823 24.4733 13.323 24.3847 13.2826 24.2871C13.2423 24.1895 13.2215 24.0849 13.2216 23.9793V22.3711C13.2215 22.2655 13.2423 22.1609 13.2826 22.0633C13.323 21.9657 13.3823 21.877 13.4569 21.8023C13.5316 21.7277 13.6203 21.6684 13.7179 21.6281C13.8155 21.5877 13.92 21.5669 14.0257 21.567C14.1313 21.5669 14.2359 21.5877 14.3335 21.6281C14.431 21.6684 14.5197 21.7277 14.5944 21.8023C14.6691 21.877 14.7283 21.9657 14.7687 22.0633C14.8091 22.1609 14.8298 22.2655 14.8298 22.3711V23.9793ZM14.8298 19.1546C14.8298 19.2602 14.8091 19.3648 14.7687 19.4624C14.7283 19.56 14.6691 19.6486 14.5944 19.7233C14.5197 19.798 14.431 19.8572 14.3335 19.8976C14.2359 19.938 14.1313 19.9587 14.0257 19.9587C13.92 19.9587 13.8155 19.938 13.7179 19.8976C13.6203 19.8572 13.5316 19.798 13.4569 19.7233C13.3823 19.6486 13.323 19.56 13.2826 19.4624C13.2423 19.3648 13.2215 19.2602 13.2216 19.1546V17.5464C13.2215 17.4408 13.2423 17.3362 13.2826 17.2386C13.323 17.141 13.3823 17.0523 13.4569 16.9777C13.5316 16.903 13.6203 16.8437 13.7179 16.8034C13.8155 16.763 13.92 16.7422 14.0257 16.7423C14.1313 16.7422 14.2359 16.763 14.3335 16.8034C14.431 16.8437 14.5197 16.903 14.5944 16.9777C14.6691 17.0523 14.7283 17.141 14.7687 17.2386C14.8091 17.3362 14.8298 17.4408 14.8298 17.5464V19.1546Z" fill="#3CB85E"/>
    <path d="M51.0141 40.8652H17.2416C17.0283 40.8652 16.8238 40.7805 16.673 40.6297C16.5222 40.4789 16.4375 40.2743 16.4375 40.0611V15.9379C16.4375 15.7246 16.5222 15.5201 16.673 15.3693C16.8238 15.2185 17.0283 15.1338 17.2416 15.1338H51.0141C51.2274 15.1338 51.4319 15.2185 51.5827 15.3693C51.7335 15.5201 51.8182 15.7246 51.8182 15.9379V40.0611C51.8182 40.2743 51.7335 40.4789 51.5827 40.6297C51.4319 40.7805 51.2274 40.8652 51.0141 40.8652Z" fill="#55C874"/>
    <path d="M33.4625 33.5569L29.2946 36.1735C28.3761 36.7501 27.2234 35.9127 27.488 34.8609L28.6886 30.0884L24.9121 26.9331C24.0797 26.2376 24.52 24.8826 25.6021 24.8093L30.512 24.4764L32.346 19.9096C32.7501 18.9032 34.1749 18.9032 34.5791 19.9096L36.413 24.4764L41.3229 24.8093C42.405 24.8827 42.8453 26.2377 42.013 26.9331L38.2365 30.0884L39.4371 34.8609C39.7016 35.9127 38.5491 36.7502 37.6304 36.1735L33.4625 33.5569Z" fill="#95EDAD"/>
    <path d="M38.914 32.7815C33.7035 32.463 29.2859 29.2376 27.2673 24.6958L25.6021 24.8087C24.52 24.8821 24.0797 26.2371 24.9121 26.9324L28.6886 30.0878L27.4879 34.8603C27.2233 35.9121 28.3759 36.7495 29.2945 36.1729L33.4624 33.5563L37.6302 36.1729C38.5488 36.7495 39.7015 35.9121 39.4368 34.8603L38.914 32.7815Z" fill="#7BEB9A"/>
</svg>

